M48
; DRILL file {KiCad (5.1.6-0-10_14)} date Tuesday, March 16, 2021 at 08:34:49 AM
; FORMAT={-:-/ absolute / inch / decimal}
; #@! TF.CreationDate,2021-03-16T08:34:49-04:00
; #@! TF.GenerationSoftware,Kicad,Pcbnew,(5.1.6-0-10_14)
FMAT,2
INCH
T1C0.0079
T2C0.0100
T3C0.0394
%
G90
G05
T1
X8.8878Y-3.0451
X8.8882Y-3.3118
X8.9547Y-3.2563
X8.9547Y-3.276
X8.9547Y-3.2957
X8.9547Y-3.5236
X8.9567Y-2.9882
X8.9567Y-3.0079
X8.9567Y-3.0276
X8.9744Y-3.2563
X8.9744Y-3.276
X8.9744Y-3.2957
X8.9744Y-3.5236
X8.9764Y-2.9882
X8.9764Y-3.0079
X8.9764Y-3.0276
X8.9941Y-3.2563
X8.9941Y-3.276
X8.9941Y-3.2957
X8.9941Y-3.5236
X8.9961Y-2.9882
X8.9961Y-3.0079
X8.9961Y-3.0276
X9.0138Y-3.2563
X9.0138Y-3.276
X9.0138Y-3.2957
X9.0138Y-3.5236
X9.0157Y-2.9882
X9.0157Y-3.0079
X9.0157Y-3.0276
X9.0335Y-3.2563
X9.0335Y-3.276
X9.0335Y-3.2957
X9.0335Y-3.5236
X9.0354Y-2.9882
X9.0354Y-3.0079
X9.0354Y-3.0276
X9.0531Y-3.2563
X9.0531Y-3.276
X9.0531Y-3.2957
X9.0531Y-3.5236
X9.0551Y-2.9882
X9.0551Y-3.0079
X9.0551Y-3.0276
X9.0728Y-3.2563
X9.0728Y-3.276
X9.0728Y-3.2957
X9.0728Y-3.5236
X9.0748Y-2.9882
X9.0748Y-3.0079
X9.0748Y-3.0276
X9.0925Y-3.2563
X9.0925Y-3.276
X9.0925Y-3.2957
X9.0925Y-3.5236
X9.0945Y-2.9882
X9.0945Y-3.0079
X9.0945Y-3.0276
X9.1122Y-3.2563
X9.1122Y-3.276
X9.1122Y-3.2957
X9.1122Y-3.5236
X9.1142Y-2.9882
X9.1142Y-3.0079
X9.1142Y-3.0276
X9.1457Y-3.074
X9.1457Y-3.3425
X9.1508Y-2.8303
X9.1535Y-2.9055
X9.1535Y-2.9252
X9.1535Y-2.9449
X9.1535Y-2.9646
X9.1535Y-3.1102
X9.1535Y-3.1299
X9.1535Y-3.1496
X9.1535Y-3.1693
X9.1535Y-3.189
X9.1535Y-3.2087
X9.1535Y-3.2283
X9.1535Y-3.378
X9.1535Y-3.3976
X9.1535Y-3.4173
X9.1732Y-3.378
X9.1732Y-3.3976
X9.1732Y-3.4173
X9.1732Y-3.437
X9.1864Y-3.0134
X9.1929Y-3.3976
X9.1929Y-3.4173
X9.1929Y-3.437
X9.2122Y-3.2827
X9.2283Y-2.8661
X9.2311Y-3.2512
X9.2588Y-3.2461
X9.2689Y-3.1545
X9.2717Y-3.0118
X9.2795Y-3.4409
X9.2965Y-2.9087
X9.3044Y-3.1442
X9.3441Y-3.0368
X9.3606Y-3.2431
X9.374Y-3.2965
X9.3823Y-3.3183
X9.3831Y-3.1606
X9.387Y-2.9627
X9.3878Y-3.2827
X9.4469Y-3.0295
X9.4528Y-2.7835
X9.4528Y-2.8031
X9.4528Y-2.8228
X9.4528Y-2.8425
X9.4665Y-3.0098
X9.4665Y-3.0295
X9.4679Y-3.2761
X9.4724Y-2.7835
X9.4724Y-2.8031
X9.4724Y-2.8228
X9.4724Y-2.8425
X9.485Y-3.4803
X9.4862Y-3.0098
X9.4862Y-3.0295
X9.4909Y-3.276
X9.4921Y-2.7835
X9.4921Y-2.8031
X9.4921Y-2.8228
X9.4921Y-2.8425
X9.5114Y-3.3862
X9.5315Y-2.8583
X9.5315Y-2.878
X9.5315Y-2.8976
X9.5339Y-3.1252
X9.5512Y-2.8583
X9.5512Y-2.878
X9.5512Y-2.8976
X9.5528Y-3.2492
X9.5555Y-3.1252
X9.5602Y-2.9543
X9.5669Y-3.0382
X9.5681Y-3.4063
X9.5709Y-2.8583
X9.5709Y-2.878
X9.5709Y-2.8976
X9.5906Y-2.8583
X9.5906Y-2.878
X9.5906Y-2.8976
X9.5917Y-3.4069
X9.6102Y-2.8583
X9.6102Y-2.878
X9.6102Y-2.8976
X9.6248Y-3.2492
X9.6602Y-3.2724
X9.6772Y-3.2886
X9.6807Y-3.0402
X9.7083Y-3.4315
X9.7323Y-3.1614
X9.752Y-3.1614
X9.7598Y-3.0319
X9.7717Y-3.1614
X9.7787Y-3.0185
X9.7854Y-3.4626
X9.7884Y-3.4254
X9.8051Y-3.3673
X9.8051Y-3.4087
X9.848Y-3.2795
X9.8697Y-3.2488
X9.8929Y-3.1516
X9.8988Y-3.0303
T2
X8.6811Y-2.815
X8.6811Y-2.8445
X8.6811Y-2.874
X8.6811Y-2.9035
X8.6811Y-2.9331
X8.6811Y-3.0906
X8.6811Y-3.1201
X8.6811Y-3.1496
X8.6811Y-3.1791
X8.6811Y-3.2087
X8.6811Y-3.3661
X8.6811Y-3.3957
X8.6811Y-3.4252
X8.6811Y-3.4547
X8.6811Y-3.4843
X8.7106Y-2.815
X8.7106Y-2.8445
X8.7106Y-2.874
X8.7106Y-2.9035
X8.7106Y-2.9331
X8.7106Y-3.0906
X8.7106Y-3.1201
X8.7106Y-3.1496
X8.7106Y-3.1791
X8.7106Y-3.2087
X8.7106Y-3.3661
X8.7106Y-3.3957
X8.7106Y-3.4252
X8.7106Y-3.4547
X8.7106Y-3.4843
X8.7402Y-2.815
X8.7402Y-2.8445
X8.7402Y-2.9035
X8.7402Y-2.9331
X8.7402Y-3.0906
X8.7402Y-3.1201
X8.7402Y-3.1791
X8.7402Y-3.2087
X8.7402Y-3.3661
X8.7402Y-3.3957
X8.7402Y-3.4547
X8.7402Y-3.4843
X8.7697Y-2.815
X8.7697Y-2.8445
X8.7697Y-2.874
X8.7697Y-2.9035
X8.7697Y-2.9331
X8.7697Y-3.0906
X8.7697Y-3.1201
X8.7697Y-3.1496
X8.7697Y-3.1791
X8.7697Y-3.2087
X8.7697Y-3.3661
X8.7697Y-3.3957
X8.7697Y-3.4252
X8.7697Y-3.4547
X8.7697Y-3.4843
X8.7992Y-2.815
X8.7992Y-2.8445
X8.7992Y-2.874
X8.7992Y-2.9035
X8.7992Y-2.9331
X8.7992Y-3.0906
X8.7992Y-3.1201
X8.7992Y-3.1496
X8.7992Y-3.1791
X8.7992Y-3.2087
X8.7992Y-3.3661
X8.7992Y-3.3957
X8.7992Y-3.4252
X8.7992Y-3.4547
X8.7992Y-3.4843
X9.9409Y-2.8346
X9.9409Y-2.8642
X9.9409Y-2.8937
X9.9409Y-2.9232
X9.9409Y-2.9528
X9.9409Y-2.9823
X9.9409Y-3.0118
X9.9409Y-3.0906
X9.9409Y-3.1102
X9.9409Y-3.1299
X9.9409Y-3.1496
X9.9409Y-3.1693
X9.9409Y-3.189
X9.9409Y-3.2087
X9.9409Y-3.2874
X9.9409Y-3.3169
X9.9409Y-3.3465
X9.9409Y-3.376
X9.9409Y-3.4055
X9.9409Y-3.435
X9.9606Y-3.0906
X9.9606Y-3.1102
X9.9606Y-3.1299
X9.9606Y-3.1496
X9.9606Y-3.1693
X9.9606Y-3.189
X9.9606Y-3.2087
X9.9705Y-2.8346
X9.9705Y-2.8642
X9.9705Y-2.8937
X9.9705Y-2.9232
X9.9705Y-2.9528
X9.9705Y-2.9823
X9.9705Y-3.0118
X9.9705Y-3.2874
X9.9705Y-3.3169
X9.9705Y-3.3465
X9.9705Y-3.376
X9.9705Y-3.4055
X9.9705Y-3.435
X9.9705Y-3.4646
X9.9803Y-3.0906
X9.9803Y-3.1102
X9.9803Y-3.1299
X9.9803Y-3.1496
X9.9803Y-3.1693
X9.9803Y-3.189
X9.9803Y-3.2087
X10.0Y-2.8051
X10.0Y-2.8346
X10.0Y-2.8642
X10.0Y-2.8937
X10.0Y-2.9232
X10.0Y-2.9528
X10.0Y-2.9823
X10.0Y-3.0118
X10.0Y-3.0413
X10.0Y-3.0906
X10.0Y-3.1102
X10.0Y-3.1299
X10.0Y-3.1496
X10.0Y-3.1693
X10.0Y-3.189
X10.0Y-3.2087
X10.0Y-3.2579
X10.0Y-3.2874
X10.0Y-3.3169
X10.0Y-3.3465
X10.0Y-3.376
X10.0Y-3.4055
X10.0Y-3.435
X10.0Y-3.4646
X10.0Y-3.4941
X10.0197Y-3.0906
X10.0197Y-3.1102
X10.0197Y-3.1299
X10.0197Y-3.1496
X10.0197Y-3.1693
X10.0197Y-3.189
X10.0197Y-3.2087
X10.0295Y-2.8051
X10.0295Y-2.8346
X10.0295Y-2.8642
X10.0295Y-2.8937
X10.0295Y-2.9232
X10.0295Y-2.9528
X10.0295Y-2.9823
X10.0295Y-3.0118
X10.0295Y-3.0413
X10.0295Y-3.2579
X10.0295Y-3.2874
X10.0295Y-3.3169
X10.0295Y-3.3465
X10.0295Y-3.376
X10.0295Y-3.4055
X10.0295Y-3.435
X10.0295Y-3.4646
X10.0295Y-3.4941
X10.0394Y-3.0906
X10.0394Y-3.1102
X10.0394Y-3.1299
X10.0394Y-3.1496
X10.0394Y-3.1693
X10.0394Y-3.189
X10.0394Y-3.2087
X10.0591Y-2.8051
X10.0591Y-2.8346
X10.0591Y-2.8642
X10.0591Y-2.8937
X10.0591Y-2.9528
X10.0591Y-2.9823
X10.0591Y-3.0118
X10.0591Y-3.0413
X10.0591Y-3.0906
X10.0591Y-3.1102
X10.0591Y-3.1299
X10.0591Y-3.1496
X10.0591Y-3.1693
X10.0591Y-3.189
X10.0591Y-3.2087
X10.0591Y-3.2579
X10.0591Y-3.2874
X10.0591Y-3.3169
X10.0591Y-3.3465
X10.0591Y-3.4055
X10.0591Y-3.435
X10.0591Y-3.4646
X10.0591Y-3.4941
X10.0886Y-2.8051
X10.0886Y-2.8346
X10.0886Y-2.8642
X10.0886Y-2.8937
X10.0886Y-2.9232
X10.0886Y-2.9528
X10.0886Y-2.9823
X10.0886Y-3.0118
X10.0886Y-3.0413
X10.0886Y-3.2579
X10.0886Y-3.2874
X10.0886Y-3.3169
X10.0886Y-3.3465
X10.0886Y-3.376
X10.0886Y-3.4055
X10.0886Y-3.435
X10.0886Y-3.4646
X10.0886Y-3.4941
X10.1181Y-2.8051
X10.1181Y-2.8346
X10.1181Y-2.8642
X10.1181Y-2.8937
X10.1181Y-2.9232
X10.1181Y-2.9528
X10.1181Y-2.9823
X10.1181Y-3.0118
X10.1181Y-3.0413
X10.1181Y-3.2579
X10.1181Y-3.2874
X10.1181Y-3.3169
X10.1181Y-3.3465
X10.1181Y-3.376
X10.1181Y-3.4055
X10.1181Y-3.435
X10.1181Y-3.4646
X10.1181Y-3.4941
X10.1476Y-2.8346
X10.1476Y-2.8642
X10.1476Y-2.8937
X10.1476Y-2.9232
X10.1476Y-2.9528
X10.1476Y-2.9823
X10.1476Y-3.0118
X10.1476Y-3.2874
X10.1476Y-3.3169
X10.1476Y-3.3465
X10.1476Y-3.376
X10.1476Y-3.4055
X10.1476Y-3.435
X10.1476Y-3.4646
X10.1772Y-2.8346
X10.1772Y-2.8642
X10.1772Y-2.8937
X10.1772Y-2.9232
X10.1772Y-2.9528
X10.1772Y-2.9823
X10.1772Y-3.0118
X10.1772Y-3.2874
X10.1772Y-3.3169
X10.1772Y-3.3465
X10.1772Y-3.376
X10.1772Y-3.4055
X10.1772Y-3.435
X10.1772Y-3.4646
X10.0591Y-2.9232
X10.0591Y-3.376
X8.7402Y-2.874
X8.7402Y-3.1496
X8.7402Y-3.4252
T3
X9.6492Y-2.9413
X9.7492Y-2.9413
X9.8492Y-2.9413
X9.5492Y-2.8083
X9.6492Y-2.8083
X9.7492Y-2.8083
X9.8492Y-2.8083
T0
M30
