%TF.GenerationSoftware,KiCad,Pcbnew,(5.1.6-0-10_14)*%
%TF.CreationDate,2021-03-16T08:34:44-04:00*%
%TF.ProjectId,F051_ESC,46303531-5f45-4534-932e-6b696361645f,rev?*%
%TF.SameCoordinates,Original*%
%TF.FileFunction,Paste,Bot*%
%TF.FilePolarity,Positive*%
%FSLAX46Y46*%
G04 Gerber Fmt 4.6, Leading zero omitted, Abs format (unit mm)*
G04 Created by KiCad (PCBNEW (5.1.6-0-10_14)) date 2021-03-16 08:34:44*
%MOMM*%
%LPD*%
G01*
G04 APERTURE LIST*
%ADD10C,0.010000*%
%ADD11R,1.050000X0.850000*%
%ADD12R,1.450000X0.850000*%
%ADD13R,0.650000X1.060000*%
%ADD14R,1.060000X0.650000*%
%ADD15R,0.700000X0.600000*%
G04 APERTURE END LIST*
D10*
%TO.C,Q5*%
G36*
X227560000Y-87986000D02*
G01*
X230540000Y-87986000D01*
X230540000Y-85614000D01*
X227560000Y-85614000D01*
X227560000Y-87986000D01*
G37*
X227560000Y-87986000D02*
X230540000Y-87986000D01*
X230540000Y-85614000D01*
X227560000Y-85614000D01*
X227560000Y-87986000D01*
%TO.C,Q3*%
G36*
X227560000Y-81186000D02*
G01*
X230540000Y-81186000D01*
X230540000Y-78814000D01*
X227560000Y-78814000D01*
X227560000Y-81186000D01*
G37*
X227560000Y-81186000D02*
X230540000Y-81186000D01*
X230540000Y-78814000D01*
X227560000Y-78814000D01*
X227560000Y-81186000D01*
%TO.C,Q1*%
G36*
X227600000Y-74386000D02*
G01*
X230580000Y-74386000D01*
X230580000Y-72014000D01*
X227600000Y-72014000D01*
X227600000Y-74386000D01*
G37*
X227600000Y-74386000D02*
X230580000Y-74386000D01*
X230580000Y-72014000D01*
X227600000Y-72014000D01*
X227600000Y-74386000D01*
%TD*%
D11*
%TO.C,Q5*%
X231450000Y-88705000D03*
X231450000Y-87435000D03*
X231450000Y-86165000D03*
X231450000Y-84895000D03*
D12*
X225750000Y-84895000D03*
X225750000Y-86165000D03*
X225750000Y-87435000D03*
X225750000Y-88705000D03*
%TD*%
D13*
%TO.C,U7*%
X240920000Y-87420000D03*
X242820000Y-87420000D03*
X242820000Y-85220000D03*
X241870000Y-85220000D03*
X240920000Y-85220000D03*
%TD*%
%TO.C,C2*%
G36*
G01*
X244650000Y-76487500D02*
X244650000Y-76832500D01*
G75*
G02*
X244502500Y-76980000I-147500J0D01*
G01*
X244207500Y-76980000D01*
G75*
G02*
X244060000Y-76832500I0J147500D01*
G01*
X244060000Y-76487500D01*
G75*
G02*
X244207500Y-76340000I147500J0D01*
G01*
X244502500Y-76340000D01*
G75*
G02*
X244650000Y-76487500I0J-147500D01*
G01*
G37*
G36*
G01*
X245620000Y-76487500D02*
X245620000Y-76832500D01*
G75*
G02*
X245472500Y-76980000I-147500J0D01*
G01*
X245177500Y-76980000D01*
G75*
G02*
X245030000Y-76832500I0J147500D01*
G01*
X245030000Y-76487500D01*
G75*
G02*
X245177500Y-76340000I147500J0D01*
G01*
X245472500Y-76340000D01*
G75*
G02*
X245620000Y-76487500I0J-147500D01*
G01*
G37*
%TD*%
%TO.C,R3*%
G36*
G01*
X242620000Y-84072500D02*
X242620000Y-83727500D01*
G75*
G02*
X242767500Y-83580000I147500J0D01*
G01*
X243062500Y-83580000D01*
G75*
G02*
X243210000Y-83727500I0J-147500D01*
G01*
X243210000Y-84072500D01*
G75*
G02*
X243062500Y-84220000I-147500J0D01*
G01*
X242767500Y-84220000D01*
G75*
G02*
X242620000Y-84072500I0J147500D01*
G01*
G37*
G36*
G01*
X241650000Y-84072500D02*
X241650000Y-83727500D01*
G75*
G02*
X241797500Y-83580000I147500J0D01*
G01*
X242092500Y-83580000D01*
G75*
G02*
X242240000Y-83727500I0J-147500D01*
G01*
X242240000Y-84072500D01*
G75*
G02*
X242092500Y-84220000I-147500J0D01*
G01*
X241797500Y-84220000D01*
G75*
G02*
X241650000Y-84072500I0J147500D01*
G01*
G37*
%TD*%
%TO.C,C8*%
G36*
G01*
X240710000Y-84072500D02*
X240710000Y-83727500D01*
G75*
G02*
X240857500Y-83580000I147500J0D01*
G01*
X241152500Y-83580000D01*
G75*
G02*
X241300000Y-83727500I0J-147500D01*
G01*
X241300000Y-84072500D01*
G75*
G02*
X241152500Y-84220000I-147500J0D01*
G01*
X240857500Y-84220000D01*
G75*
G02*
X240710000Y-84072500I0J147500D01*
G01*
G37*
G36*
G01*
X239740000Y-84072500D02*
X239740000Y-83727500D01*
G75*
G02*
X239887500Y-83580000I147500J0D01*
G01*
X240182500Y-83580000D01*
G75*
G02*
X240330000Y-83727500I0J-147500D01*
G01*
X240330000Y-84072500D01*
G75*
G02*
X240182500Y-84220000I-147500J0D01*
G01*
X239887500Y-84220000D01*
G75*
G02*
X239740000Y-84072500I0J147500D01*
G01*
G37*
%TD*%
%TO.C,R2*%
G36*
G01*
X242550000Y-88567500D02*
X242550000Y-88912500D01*
G75*
G02*
X242402500Y-89060000I-147500J0D01*
G01*
X242107500Y-89060000D01*
G75*
G02*
X241960000Y-88912500I0J147500D01*
G01*
X241960000Y-88567500D01*
G75*
G02*
X242107500Y-88420000I147500J0D01*
G01*
X242402500Y-88420000D01*
G75*
G02*
X242550000Y-88567500I0J-147500D01*
G01*
G37*
G36*
G01*
X243520000Y-88567500D02*
X243520000Y-88912500D01*
G75*
G02*
X243372500Y-89060000I-147500J0D01*
G01*
X243077500Y-89060000D01*
G75*
G02*
X242930000Y-88912500I0J147500D01*
G01*
X242930000Y-88567500D01*
G75*
G02*
X243077500Y-88420000I147500J0D01*
G01*
X243372500Y-88420000D01*
G75*
G02*
X243520000Y-88567500I0J-147500D01*
G01*
G37*
%TD*%
%TO.C,C7*%
G36*
G01*
X247867500Y-88010000D02*
X248212500Y-88010000D01*
G75*
G02*
X248360000Y-88157500I0J-147500D01*
G01*
X248360000Y-88452500D01*
G75*
G02*
X248212500Y-88600000I-147500J0D01*
G01*
X247867500Y-88600000D01*
G75*
G02*
X247720000Y-88452500I0J147500D01*
G01*
X247720000Y-88157500D01*
G75*
G02*
X247867500Y-88010000I147500J0D01*
G01*
G37*
G36*
G01*
X247867500Y-87040000D02*
X248212500Y-87040000D01*
G75*
G02*
X248360000Y-87187500I0J-147500D01*
G01*
X248360000Y-87482500D01*
G75*
G02*
X248212500Y-87630000I-147500J0D01*
G01*
X247867500Y-87630000D01*
G75*
G02*
X247720000Y-87482500I0J147500D01*
G01*
X247720000Y-87187500D01*
G75*
G02*
X247867500Y-87040000I147500J0D01*
G01*
G37*
%TD*%
%TO.C,FB1*%
G36*
G01*
X249400000Y-86366250D02*
X249400000Y-85853750D01*
G75*
G02*
X249618750Y-85635000I218750J0D01*
G01*
X250056250Y-85635000D01*
G75*
G02*
X250275000Y-85853750I0J-218750D01*
G01*
X250275000Y-86366250D01*
G75*
G02*
X250056250Y-86585000I-218750J0D01*
G01*
X249618750Y-86585000D01*
G75*
G02*
X249400000Y-86366250I0J218750D01*
G01*
G37*
G36*
G01*
X247825000Y-86366250D02*
X247825000Y-85853750D01*
G75*
G02*
X248043750Y-85635000I218750J0D01*
G01*
X248481250Y-85635000D01*
G75*
G02*
X248700000Y-85853750I0J-218750D01*
G01*
X248700000Y-86366250D01*
G75*
G02*
X248481250Y-86585000I-218750J0D01*
G01*
X248043750Y-86585000D01*
G75*
G02*
X247825000Y-86366250I0J218750D01*
G01*
G37*
%TD*%
%TO.C,C6*%
G36*
G01*
X248977500Y-84590000D02*
X249322500Y-84590000D01*
G75*
G02*
X249470000Y-84737500I0J-147500D01*
G01*
X249470000Y-85032500D01*
G75*
G02*
X249322500Y-85180000I-147500J0D01*
G01*
X248977500Y-85180000D01*
G75*
G02*
X248830000Y-85032500I0J147500D01*
G01*
X248830000Y-84737500D01*
G75*
G02*
X248977500Y-84590000I147500J0D01*
G01*
G37*
G36*
G01*
X248977500Y-83620000D02*
X249322500Y-83620000D01*
G75*
G02*
X249470000Y-83767500I0J-147500D01*
G01*
X249470000Y-84062500D01*
G75*
G02*
X249322500Y-84210000I-147500J0D01*
G01*
X248977500Y-84210000D01*
G75*
G02*
X248830000Y-84062500I0J147500D01*
G01*
X248830000Y-83767500D01*
G75*
G02*
X248977500Y-83620000I147500J0D01*
G01*
G37*
%TD*%
D14*
%TO.C,U5*%
X246720000Y-88130000D03*
X246720000Y-86230000D03*
X244520000Y-86230000D03*
X244520000Y-87180000D03*
X244520000Y-88130000D03*
%TD*%
D15*
%TO.C,D4*%
X235500000Y-79290000D03*
X235500000Y-80690000D03*
%TD*%
%TO.C,D3*%
X235500000Y-72210000D03*
X235500000Y-73610000D03*
%TD*%
%TO.C,D2*%
X235500000Y-75750000D03*
X235500000Y-77150000D03*
%TD*%
%TO.C,C12*%
G36*
G01*
X236723750Y-77290000D02*
X237236250Y-77290000D01*
G75*
G02*
X237455000Y-77508750I0J-218750D01*
G01*
X237455000Y-77946250D01*
G75*
G02*
X237236250Y-78165000I-218750J0D01*
G01*
X236723750Y-78165000D01*
G75*
G02*
X236505000Y-77946250I0J218750D01*
G01*
X236505000Y-77508750D01*
G75*
G02*
X236723750Y-77290000I218750J0D01*
G01*
G37*
G36*
G01*
X236723750Y-75715000D02*
X237236250Y-75715000D01*
G75*
G02*
X237455000Y-75933750I0J-218750D01*
G01*
X237455000Y-76371250D01*
G75*
G02*
X237236250Y-76590000I-218750J0D01*
G01*
X236723750Y-76590000D01*
G75*
G02*
X236505000Y-76371250I0J218750D01*
G01*
X236505000Y-75933750D01*
G75*
G02*
X236723750Y-75715000I218750J0D01*
G01*
G37*
%TD*%
%TO.C,C11*%
G36*
G01*
X243347500Y-78820000D02*
X243692500Y-78820000D01*
G75*
G02*
X243840000Y-78967500I0J-147500D01*
G01*
X243840000Y-79262500D01*
G75*
G02*
X243692500Y-79410000I-147500J0D01*
G01*
X243347500Y-79410000D01*
G75*
G02*
X243200000Y-79262500I0J147500D01*
G01*
X243200000Y-78967500D01*
G75*
G02*
X243347500Y-78820000I147500J0D01*
G01*
G37*
G36*
G01*
X243347500Y-77850000D02*
X243692500Y-77850000D01*
G75*
G02*
X243840000Y-77997500I0J-147500D01*
G01*
X243840000Y-78292500D01*
G75*
G02*
X243692500Y-78440000I-147500J0D01*
G01*
X243347500Y-78440000D01*
G75*
G02*
X243200000Y-78292500I0J147500D01*
G01*
X243200000Y-77997500D01*
G75*
G02*
X243347500Y-77850000I147500J0D01*
G01*
G37*
%TD*%
%TO.C,R15*%
G36*
G01*
X242877500Y-82640000D02*
X243222500Y-82640000D01*
G75*
G02*
X243370000Y-82787500I0J-147500D01*
G01*
X243370000Y-83082500D01*
G75*
G02*
X243222500Y-83230000I-147500J0D01*
G01*
X242877500Y-83230000D01*
G75*
G02*
X242730000Y-83082500I0J147500D01*
G01*
X242730000Y-82787500D01*
G75*
G02*
X242877500Y-82640000I147500J0D01*
G01*
G37*
G36*
G01*
X242877500Y-81670000D02*
X243222500Y-81670000D01*
G75*
G02*
X243370000Y-81817500I0J-147500D01*
G01*
X243370000Y-82112500D01*
G75*
G02*
X243222500Y-82260000I-147500J0D01*
G01*
X242877500Y-82260000D01*
G75*
G02*
X242730000Y-82112500I0J147500D01*
G01*
X242730000Y-81817500D01*
G75*
G02*
X242877500Y-81670000I147500J0D01*
G01*
G37*
%TD*%
D11*
%TO.C,Q3*%
X231450000Y-81905000D03*
X231450000Y-80635000D03*
X231450000Y-79365000D03*
X231450000Y-78095000D03*
D12*
X225750000Y-78095000D03*
X225750000Y-79365000D03*
X225750000Y-80635000D03*
X225750000Y-81905000D03*
%TD*%
D11*
%TO.C,Q1*%
X231490000Y-75105000D03*
X231490000Y-73835000D03*
X231490000Y-72565000D03*
X231490000Y-71295000D03*
D12*
X225790000Y-71295000D03*
X225790000Y-72565000D03*
X225790000Y-73835000D03*
X225790000Y-75105000D03*
%TD*%
%TO.C,C1*%
G36*
G01*
X250957500Y-84590000D02*
X251302500Y-84590000D01*
G75*
G02*
X251450000Y-84737500I0J-147500D01*
G01*
X251450000Y-85032500D01*
G75*
G02*
X251302500Y-85180000I-147500J0D01*
G01*
X250957500Y-85180000D01*
G75*
G02*
X250810000Y-85032500I0J147500D01*
G01*
X250810000Y-84737500D01*
G75*
G02*
X250957500Y-84590000I147500J0D01*
G01*
G37*
G36*
G01*
X250957500Y-83620000D02*
X251302500Y-83620000D01*
G75*
G02*
X251450000Y-83767500I0J-147500D01*
G01*
X251450000Y-84062500D01*
G75*
G02*
X251302500Y-84210000I-147500J0D01*
G01*
X250957500Y-84210000D01*
G75*
G02*
X250810000Y-84062500I0J147500D01*
G01*
X250810000Y-83767500D01*
G75*
G02*
X250957500Y-83620000I147500J0D01*
G01*
G37*
%TD*%
%TO.C,R24*%
G36*
G01*
X243917500Y-84590000D02*
X244262500Y-84590000D01*
G75*
G02*
X244410000Y-84737500I0J-147500D01*
G01*
X244410000Y-85032500D01*
G75*
G02*
X244262500Y-85180000I-147500J0D01*
G01*
X243917500Y-85180000D01*
G75*
G02*
X243770000Y-85032500I0J147500D01*
G01*
X243770000Y-84737500D01*
G75*
G02*
X243917500Y-84590000I147500J0D01*
G01*
G37*
G36*
G01*
X243917500Y-83620000D02*
X244262500Y-83620000D01*
G75*
G02*
X244410000Y-83767500I0J-147500D01*
G01*
X244410000Y-84062500D01*
G75*
G02*
X244262500Y-84210000I-147500J0D01*
G01*
X243917500Y-84210000D01*
G75*
G02*
X243770000Y-84062500I0J147500D01*
G01*
X243770000Y-83767500D01*
G75*
G02*
X243917500Y-83620000I147500J0D01*
G01*
G37*
%TD*%
%TO.C,R23*%
G36*
G01*
X251147500Y-82230000D02*
X251492500Y-82230000D01*
G75*
G02*
X251640000Y-82377500I0J-147500D01*
G01*
X251640000Y-82672500D01*
G75*
G02*
X251492500Y-82820000I-147500J0D01*
G01*
X251147500Y-82820000D01*
G75*
G02*
X251000000Y-82672500I0J147500D01*
G01*
X251000000Y-82377500D01*
G75*
G02*
X251147500Y-82230000I147500J0D01*
G01*
G37*
G36*
G01*
X251147500Y-81260000D02*
X251492500Y-81260000D01*
G75*
G02*
X251640000Y-81407500I0J-147500D01*
G01*
X251640000Y-81702500D01*
G75*
G02*
X251492500Y-81850000I-147500J0D01*
G01*
X251147500Y-81850000D01*
G75*
G02*
X251000000Y-81702500I0J147500D01*
G01*
X251000000Y-81407500D01*
G75*
G02*
X251147500Y-81260000I147500J0D01*
G01*
G37*
%TD*%
%TO.C,R21*%
G36*
G01*
X244907500Y-84590000D02*
X245252500Y-84590000D01*
G75*
G02*
X245400000Y-84737500I0J-147500D01*
G01*
X245400000Y-85032500D01*
G75*
G02*
X245252500Y-85180000I-147500J0D01*
G01*
X244907500Y-85180000D01*
G75*
G02*
X244760000Y-85032500I0J147500D01*
G01*
X244760000Y-84737500D01*
G75*
G02*
X244907500Y-84590000I147500J0D01*
G01*
G37*
G36*
G01*
X244907500Y-83620000D02*
X245252500Y-83620000D01*
G75*
G02*
X245400000Y-83767500I0J-147500D01*
G01*
X245400000Y-84062500D01*
G75*
G02*
X245252500Y-84210000I-147500J0D01*
G01*
X244907500Y-84210000D01*
G75*
G02*
X244760000Y-84062500I0J147500D01*
G01*
X244760000Y-83767500D01*
G75*
G02*
X244907500Y-83620000I147500J0D01*
G01*
G37*
%TD*%
%TO.C,R20*%
G36*
G01*
X244212500Y-82260000D02*
X243867500Y-82260000D01*
G75*
G02*
X243720000Y-82112500I0J147500D01*
G01*
X243720000Y-81817500D01*
G75*
G02*
X243867500Y-81670000I147500J0D01*
G01*
X244212500Y-81670000D01*
G75*
G02*
X244360000Y-81817500I0J-147500D01*
G01*
X244360000Y-82112500D01*
G75*
G02*
X244212500Y-82260000I-147500J0D01*
G01*
G37*
G36*
G01*
X244212500Y-83230000D02*
X243867500Y-83230000D01*
G75*
G02*
X243720000Y-83082500I0J147500D01*
G01*
X243720000Y-82787500D01*
G75*
G02*
X243867500Y-82640000I147500J0D01*
G01*
X244212500Y-82640000D01*
G75*
G02*
X244360000Y-82787500I0J-147500D01*
G01*
X244360000Y-83082500D01*
G75*
G02*
X244212500Y-83230000I-147500J0D01*
G01*
G37*
%TD*%
%TO.C,R19*%
G36*
G01*
X247232500Y-84210000D02*
X246887500Y-84210000D01*
G75*
G02*
X246740000Y-84062500I0J147500D01*
G01*
X246740000Y-83767500D01*
G75*
G02*
X246887500Y-83620000I147500J0D01*
G01*
X247232500Y-83620000D01*
G75*
G02*
X247380000Y-83767500I0J-147500D01*
G01*
X247380000Y-84062500D01*
G75*
G02*
X247232500Y-84210000I-147500J0D01*
G01*
G37*
G36*
G01*
X247232500Y-85180000D02*
X246887500Y-85180000D01*
G75*
G02*
X246740000Y-85032500I0J147500D01*
G01*
X246740000Y-84737500D01*
G75*
G02*
X246887500Y-84590000I147500J0D01*
G01*
X247232500Y-84590000D01*
G75*
G02*
X247380000Y-84737500I0J-147500D01*
G01*
X247380000Y-85032500D01*
G75*
G02*
X247232500Y-85180000I-147500J0D01*
G01*
G37*
%TD*%
%TO.C,R18*%
G36*
G01*
X246242500Y-84210000D02*
X245897500Y-84210000D01*
G75*
G02*
X245750000Y-84062500I0J147500D01*
G01*
X245750000Y-83767500D01*
G75*
G02*
X245897500Y-83620000I147500J0D01*
G01*
X246242500Y-83620000D01*
G75*
G02*
X246390000Y-83767500I0J-147500D01*
G01*
X246390000Y-84062500D01*
G75*
G02*
X246242500Y-84210000I-147500J0D01*
G01*
G37*
G36*
G01*
X246242500Y-85180000D02*
X245897500Y-85180000D01*
G75*
G02*
X245750000Y-85032500I0J147500D01*
G01*
X245750000Y-84737500D01*
G75*
G02*
X245897500Y-84590000I147500J0D01*
G01*
X246242500Y-84590000D01*
G75*
G02*
X246390000Y-84737500I0J-147500D01*
G01*
X246390000Y-85032500D01*
G75*
G02*
X246242500Y-85180000I-147500J0D01*
G01*
G37*
%TD*%
%TO.C,R17*%
G36*
G01*
X241887500Y-82640000D02*
X242232500Y-82640000D01*
G75*
G02*
X242380000Y-82787500I0J-147500D01*
G01*
X242380000Y-83082500D01*
G75*
G02*
X242232500Y-83230000I-147500J0D01*
G01*
X241887500Y-83230000D01*
G75*
G02*
X241740000Y-83082500I0J147500D01*
G01*
X241740000Y-82787500D01*
G75*
G02*
X241887500Y-82640000I147500J0D01*
G01*
G37*
G36*
G01*
X241887500Y-81670000D02*
X242232500Y-81670000D01*
G75*
G02*
X242380000Y-81817500I0J-147500D01*
G01*
X242380000Y-82112500D01*
G75*
G02*
X242232500Y-82260000I-147500J0D01*
G01*
X241887500Y-82260000D01*
G75*
G02*
X241740000Y-82112500I0J147500D01*
G01*
X241740000Y-81817500D01*
G75*
G02*
X241887500Y-81670000I147500J0D01*
G01*
G37*
%TD*%
%TO.C,R16*%
G36*
G01*
X243867500Y-80730000D02*
X244212500Y-80730000D01*
G75*
G02*
X244360000Y-80877500I0J-147500D01*
G01*
X244360000Y-81172500D01*
G75*
G02*
X244212500Y-81320000I-147500J0D01*
G01*
X243867500Y-81320000D01*
G75*
G02*
X243720000Y-81172500I0J147500D01*
G01*
X243720000Y-80877500D01*
G75*
G02*
X243867500Y-80730000I147500J0D01*
G01*
G37*
G36*
G01*
X243867500Y-79760000D02*
X244212500Y-79760000D01*
G75*
G02*
X244360000Y-79907500I0J-147500D01*
G01*
X244360000Y-80202500D01*
G75*
G02*
X244212500Y-80350000I-147500J0D01*
G01*
X243867500Y-80350000D01*
G75*
G02*
X243720000Y-80202500I0J147500D01*
G01*
X243720000Y-79907500D01*
G75*
G02*
X243867500Y-79760000I147500J0D01*
G01*
G37*
%TD*%
%TO.C,R14*%
G36*
G01*
X242232500Y-80350000D02*
X241887500Y-80350000D01*
G75*
G02*
X241740000Y-80202500I0J147500D01*
G01*
X241740000Y-79907500D01*
G75*
G02*
X241887500Y-79760000I147500J0D01*
G01*
X242232500Y-79760000D01*
G75*
G02*
X242380000Y-79907500I0J-147500D01*
G01*
X242380000Y-80202500D01*
G75*
G02*
X242232500Y-80350000I-147500J0D01*
G01*
G37*
G36*
G01*
X242232500Y-81320000D02*
X241887500Y-81320000D01*
G75*
G02*
X241740000Y-81172500I0J147500D01*
G01*
X241740000Y-80877500D01*
G75*
G02*
X241887500Y-80730000I147500J0D01*
G01*
X242232500Y-80730000D01*
G75*
G02*
X242380000Y-80877500I0J-147500D01*
G01*
X242380000Y-81172500D01*
G75*
G02*
X242232500Y-81320000I-147500J0D01*
G01*
G37*
%TD*%
%TO.C,R13*%
G36*
G01*
X243222500Y-80350000D02*
X242877500Y-80350000D01*
G75*
G02*
X242730000Y-80202500I0J147500D01*
G01*
X242730000Y-79907500D01*
G75*
G02*
X242877500Y-79760000I147500J0D01*
G01*
X243222500Y-79760000D01*
G75*
G02*
X243370000Y-79907500I0J-147500D01*
G01*
X243370000Y-80202500D01*
G75*
G02*
X243222500Y-80350000I-147500J0D01*
G01*
G37*
G36*
G01*
X243222500Y-81320000D02*
X242877500Y-81320000D01*
G75*
G02*
X242730000Y-81172500I0J147500D01*
G01*
X242730000Y-80877500D01*
G75*
G02*
X242877500Y-80730000I147500J0D01*
G01*
X243222500Y-80730000D01*
G75*
G02*
X243370000Y-80877500I0J-147500D01*
G01*
X243370000Y-81172500D01*
G75*
G02*
X243222500Y-81320000I-147500J0D01*
G01*
G37*
%TD*%
%TO.C,R12*%
G36*
G01*
X241242500Y-80340000D02*
X240897500Y-80340000D01*
G75*
G02*
X240750000Y-80192500I0J147500D01*
G01*
X240750000Y-79897500D01*
G75*
G02*
X240897500Y-79750000I147500J0D01*
G01*
X241242500Y-79750000D01*
G75*
G02*
X241390000Y-79897500I0J-147500D01*
G01*
X241390000Y-80192500D01*
G75*
G02*
X241242500Y-80340000I-147500J0D01*
G01*
G37*
G36*
G01*
X241242500Y-81310000D02*
X240897500Y-81310000D01*
G75*
G02*
X240750000Y-81162500I0J147500D01*
G01*
X240750000Y-80867500D01*
G75*
G02*
X240897500Y-80720000I147500J0D01*
G01*
X241242500Y-80720000D01*
G75*
G02*
X241390000Y-80867500I0J-147500D01*
G01*
X241390000Y-81162500D01*
G75*
G02*
X241242500Y-81310000I-147500J0D01*
G01*
G37*
%TD*%
%TO.C,R11*%
G36*
G01*
X235460000Y-81932500D02*
X235460000Y-81587500D01*
G75*
G02*
X235607500Y-81440000I147500J0D01*
G01*
X235902500Y-81440000D01*
G75*
G02*
X236050000Y-81587500I0J-147500D01*
G01*
X236050000Y-81932500D01*
G75*
G02*
X235902500Y-82080000I-147500J0D01*
G01*
X235607500Y-82080000D01*
G75*
G02*
X235460000Y-81932500I0J147500D01*
G01*
G37*
G36*
G01*
X234490000Y-81932500D02*
X234490000Y-81587500D01*
G75*
G02*
X234637500Y-81440000I147500J0D01*
G01*
X234932500Y-81440000D01*
G75*
G02*
X235080000Y-81587500I0J-147500D01*
G01*
X235080000Y-81932500D01*
G75*
G02*
X234932500Y-82080000I-147500J0D01*
G01*
X234637500Y-82080000D01*
G75*
G02*
X234490000Y-81932500I0J147500D01*
G01*
G37*
%TD*%
%TO.C,R10*%
G36*
G01*
X240252500Y-80340000D02*
X239907500Y-80340000D01*
G75*
G02*
X239760000Y-80192500I0J147500D01*
G01*
X239760000Y-79897500D01*
G75*
G02*
X239907500Y-79750000I147500J0D01*
G01*
X240252500Y-79750000D01*
G75*
G02*
X240400000Y-79897500I0J-147500D01*
G01*
X240400000Y-80192500D01*
G75*
G02*
X240252500Y-80340000I-147500J0D01*
G01*
G37*
G36*
G01*
X240252500Y-81310000D02*
X239907500Y-81310000D01*
G75*
G02*
X239760000Y-81162500I0J147500D01*
G01*
X239760000Y-80867500D01*
G75*
G02*
X239907500Y-80720000I147500J0D01*
G01*
X240252500Y-80720000D01*
G75*
G02*
X240400000Y-80867500I0J-147500D01*
G01*
X240400000Y-81162500D01*
G75*
G02*
X240252500Y-81310000I-147500J0D01*
G01*
G37*
%TD*%
%TO.C,R9*%
G36*
G01*
X235460000Y-78392500D02*
X235460000Y-78047500D01*
G75*
G02*
X235607500Y-77900000I147500J0D01*
G01*
X235902500Y-77900000D01*
G75*
G02*
X236050000Y-78047500I0J-147500D01*
G01*
X236050000Y-78392500D01*
G75*
G02*
X235902500Y-78540000I-147500J0D01*
G01*
X235607500Y-78540000D01*
G75*
G02*
X235460000Y-78392500I0J147500D01*
G01*
G37*
G36*
G01*
X234490000Y-78392500D02*
X234490000Y-78047500D01*
G75*
G02*
X234637500Y-77900000I147500J0D01*
G01*
X234932500Y-77900000D01*
G75*
G02*
X235080000Y-78047500I0J-147500D01*
G01*
X235080000Y-78392500D01*
G75*
G02*
X234932500Y-78540000I-147500J0D01*
G01*
X234637500Y-78540000D01*
G75*
G02*
X234490000Y-78392500I0J147500D01*
G01*
G37*
%TD*%
%TO.C,R8*%
G36*
G01*
X239262500Y-80340000D02*
X238917500Y-80340000D01*
G75*
G02*
X238770000Y-80192500I0J147500D01*
G01*
X238770000Y-79897500D01*
G75*
G02*
X238917500Y-79750000I147500J0D01*
G01*
X239262500Y-79750000D01*
G75*
G02*
X239410000Y-79897500I0J-147500D01*
G01*
X239410000Y-80192500D01*
G75*
G02*
X239262500Y-80340000I-147500J0D01*
G01*
G37*
G36*
G01*
X239262500Y-81310000D02*
X238917500Y-81310000D01*
G75*
G02*
X238770000Y-81162500I0J147500D01*
G01*
X238770000Y-80867500D01*
G75*
G02*
X238917500Y-80720000I147500J0D01*
G01*
X239262500Y-80720000D01*
G75*
G02*
X239410000Y-80867500I0J-147500D01*
G01*
X239410000Y-81162500D01*
G75*
G02*
X239262500Y-81310000I-147500J0D01*
G01*
G37*
%TD*%
%TO.C,R7*%
G36*
G01*
X235460000Y-74852500D02*
X235460000Y-74507500D01*
G75*
G02*
X235607500Y-74360000I147500J0D01*
G01*
X235902500Y-74360000D01*
G75*
G02*
X236050000Y-74507500I0J-147500D01*
G01*
X236050000Y-74852500D01*
G75*
G02*
X235902500Y-75000000I-147500J0D01*
G01*
X235607500Y-75000000D01*
G75*
G02*
X235460000Y-74852500I0J147500D01*
G01*
G37*
G36*
G01*
X234490000Y-74852500D02*
X234490000Y-74507500D01*
G75*
G02*
X234637500Y-74360000I147500J0D01*
G01*
X234932500Y-74360000D01*
G75*
G02*
X235080000Y-74507500I0J-147500D01*
G01*
X235080000Y-74852500D01*
G75*
G02*
X234932500Y-75000000I-147500J0D01*
G01*
X234637500Y-75000000D01*
G75*
G02*
X234490000Y-74852500I0J147500D01*
G01*
G37*
%TD*%
%TO.C,C15*%
G36*
G01*
X249967500Y-84590000D02*
X250312500Y-84590000D01*
G75*
G02*
X250460000Y-84737500I0J-147500D01*
G01*
X250460000Y-85032500D01*
G75*
G02*
X250312500Y-85180000I-147500J0D01*
G01*
X249967500Y-85180000D01*
G75*
G02*
X249820000Y-85032500I0J147500D01*
G01*
X249820000Y-84737500D01*
G75*
G02*
X249967500Y-84590000I147500J0D01*
G01*
G37*
G36*
G01*
X249967500Y-83620000D02*
X250312500Y-83620000D01*
G75*
G02*
X250460000Y-83767500I0J-147500D01*
G01*
X250460000Y-84062500D01*
G75*
G02*
X250312500Y-84210000I-147500J0D01*
G01*
X249967500Y-84210000D01*
G75*
G02*
X249820000Y-84062500I0J147500D01*
G01*
X249820000Y-83767500D01*
G75*
G02*
X249967500Y-83620000I147500J0D01*
G01*
G37*
%TD*%
%TO.C,C14*%
G36*
G01*
X236723750Y-80300000D02*
X237236250Y-80300000D01*
G75*
G02*
X237455000Y-80518750I0J-218750D01*
G01*
X237455000Y-80956250D01*
G75*
G02*
X237236250Y-81175000I-218750J0D01*
G01*
X236723750Y-81175000D01*
G75*
G02*
X236505000Y-80956250I0J218750D01*
G01*
X236505000Y-80518750D01*
G75*
G02*
X236723750Y-80300000I218750J0D01*
G01*
G37*
G36*
G01*
X236723750Y-78725000D02*
X237236250Y-78725000D01*
G75*
G02*
X237455000Y-78943750I0J-218750D01*
G01*
X237455000Y-79381250D01*
G75*
G02*
X237236250Y-79600000I-218750J0D01*
G01*
X236723750Y-79600000D01*
G75*
G02*
X236505000Y-79381250I0J218750D01*
G01*
X236505000Y-78943750D01*
G75*
G02*
X236723750Y-78725000I218750J0D01*
G01*
G37*
%TD*%
%TO.C,C13*%
G36*
G01*
X236723750Y-74280000D02*
X237236250Y-74280000D01*
G75*
G02*
X237455000Y-74498750I0J-218750D01*
G01*
X237455000Y-74936250D01*
G75*
G02*
X237236250Y-75155000I-218750J0D01*
G01*
X236723750Y-75155000D01*
G75*
G02*
X236505000Y-74936250I0J218750D01*
G01*
X236505000Y-74498750D01*
G75*
G02*
X236723750Y-74280000I218750J0D01*
G01*
G37*
G36*
G01*
X236723750Y-72705000D02*
X237236250Y-72705000D01*
G75*
G02*
X237455000Y-72923750I0J-218750D01*
G01*
X237455000Y-73361250D01*
G75*
G02*
X237236250Y-73580000I-218750J0D01*
G01*
X236723750Y-73580000D01*
G75*
G02*
X236505000Y-73361250I0J218750D01*
G01*
X236505000Y-72923750D01*
G75*
G02*
X236723750Y-72705000I218750J0D01*
G01*
G37*
%TD*%
%TO.C,C3*%
G36*
G01*
X247987500Y-84590000D02*
X248332500Y-84590000D01*
G75*
G02*
X248480000Y-84737500I0J-147500D01*
G01*
X248480000Y-85032500D01*
G75*
G02*
X248332500Y-85180000I-147500J0D01*
G01*
X247987500Y-85180000D01*
G75*
G02*
X247840000Y-85032500I0J147500D01*
G01*
X247840000Y-84737500D01*
G75*
G02*
X247987500Y-84590000I147500J0D01*
G01*
G37*
G36*
G01*
X247987500Y-83620000D02*
X248332500Y-83620000D01*
G75*
G02*
X248480000Y-83767500I0J-147500D01*
G01*
X248480000Y-84062500D01*
G75*
G02*
X248332500Y-84210000I-147500J0D01*
G01*
X247987500Y-84210000D01*
G75*
G02*
X247840000Y-84062500I0J147500D01*
G01*
X247840000Y-83767500D01*
G75*
G02*
X247987500Y-83620000I147500J0D01*
G01*
G37*
%TD*%
%TO.C,U2*%
G36*
G01*
X249492500Y-83175000D02*
X249367500Y-83175000D01*
G75*
G02*
X249305000Y-83112500I0J62500D01*
G01*
X249305000Y-82362500D01*
G75*
G02*
X249367500Y-82300000I62500J0D01*
G01*
X249492500Y-82300000D01*
G75*
G02*
X249555000Y-82362500I0J-62500D01*
G01*
X249555000Y-83112500D01*
G75*
G02*
X249492500Y-83175000I-62500J0D01*
G01*
G37*
G36*
G01*
X248992500Y-83175000D02*
X248867500Y-83175000D01*
G75*
G02*
X248805000Y-83112500I0J62500D01*
G01*
X248805000Y-82362500D01*
G75*
G02*
X248867500Y-82300000I62500J0D01*
G01*
X248992500Y-82300000D01*
G75*
G02*
X249055000Y-82362500I0J-62500D01*
G01*
X249055000Y-83112500D01*
G75*
G02*
X248992500Y-83175000I-62500J0D01*
G01*
G37*
G36*
G01*
X248492500Y-83175000D02*
X248367500Y-83175000D01*
G75*
G02*
X248305000Y-83112500I0J62500D01*
G01*
X248305000Y-82362500D01*
G75*
G02*
X248367500Y-82300000I62500J0D01*
G01*
X248492500Y-82300000D01*
G75*
G02*
X248555000Y-82362500I0J-62500D01*
G01*
X248555000Y-83112500D01*
G75*
G02*
X248492500Y-83175000I-62500J0D01*
G01*
G37*
G36*
G01*
X247992500Y-83175000D02*
X247867500Y-83175000D01*
G75*
G02*
X247805000Y-83112500I0J62500D01*
G01*
X247805000Y-82362500D01*
G75*
G02*
X247867500Y-82300000I62500J0D01*
G01*
X247992500Y-82300000D01*
G75*
G02*
X248055000Y-82362500I0J-62500D01*
G01*
X248055000Y-83112500D01*
G75*
G02*
X247992500Y-83175000I-62500J0D01*
G01*
G37*
G36*
G01*
X247492500Y-83175000D02*
X247367500Y-83175000D01*
G75*
G02*
X247305000Y-83112500I0J62500D01*
G01*
X247305000Y-82362500D01*
G75*
G02*
X247367500Y-82300000I62500J0D01*
G01*
X247492500Y-82300000D01*
G75*
G02*
X247555000Y-82362500I0J-62500D01*
G01*
X247555000Y-83112500D01*
G75*
G02*
X247492500Y-83175000I-62500J0D01*
G01*
G37*
G36*
G01*
X246992500Y-83175000D02*
X246867500Y-83175000D01*
G75*
G02*
X246805000Y-83112500I0J62500D01*
G01*
X246805000Y-82362500D01*
G75*
G02*
X246867500Y-82300000I62500J0D01*
G01*
X246992500Y-82300000D01*
G75*
G02*
X247055000Y-82362500I0J-62500D01*
G01*
X247055000Y-83112500D01*
G75*
G02*
X246992500Y-83175000I-62500J0D01*
G01*
G37*
G36*
G01*
X246492500Y-83175000D02*
X246367500Y-83175000D01*
G75*
G02*
X246305000Y-83112500I0J62500D01*
G01*
X246305000Y-82362500D01*
G75*
G02*
X246367500Y-82300000I62500J0D01*
G01*
X246492500Y-82300000D01*
G75*
G02*
X246555000Y-82362500I0J-62500D01*
G01*
X246555000Y-83112500D01*
G75*
G02*
X246492500Y-83175000I-62500J0D01*
G01*
G37*
G36*
G01*
X245992500Y-83175000D02*
X245867500Y-83175000D01*
G75*
G02*
X245805000Y-83112500I0J62500D01*
G01*
X245805000Y-82362500D01*
G75*
G02*
X245867500Y-82300000I62500J0D01*
G01*
X245992500Y-82300000D01*
G75*
G02*
X246055000Y-82362500I0J-62500D01*
G01*
X246055000Y-83112500D01*
G75*
G02*
X245992500Y-83175000I-62500J0D01*
G01*
G37*
G36*
G01*
X245617500Y-82175000D02*
X244867500Y-82175000D01*
G75*
G02*
X244805000Y-82112500I0J62500D01*
G01*
X244805000Y-81987500D01*
G75*
G02*
X244867500Y-81925000I62500J0D01*
G01*
X245617500Y-81925000D01*
G75*
G02*
X245680000Y-81987500I0J-62500D01*
G01*
X245680000Y-82112500D01*
G75*
G02*
X245617500Y-82175000I-62500J0D01*
G01*
G37*
G36*
G01*
X245617500Y-81675000D02*
X244867500Y-81675000D01*
G75*
G02*
X244805000Y-81612500I0J62500D01*
G01*
X244805000Y-81487500D01*
G75*
G02*
X244867500Y-81425000I62500J0D01*
G01*
X245617500Y-81425000D01*
G75*
G02*
X245680000Y-81487500I0J-62500D01*
G01*
X245680000Y-81612500D01*
G75*
G02*
X245617500Y-81675000I-62500J0D01*
G01*
G37*
G36*
G01*
X245617500Y-81175000D02*
X244867500Y-81175000D01*
G75*
G02*
X244805000Y-81112500I0J62500D01*
G01*
X244805000Y-80987500D01*
G75*
G02*
X244867500Y-80925000I62500J0D01*
G01*
X245617500Y-80925000D01*
G75*
G02*
X245680000Y-80987500I0J-62500D01*
G01*
X245680000Y-81112500D01*
G75*
G02*
X245617500Y-81175000I-62500J0D01*
G01*
G37*
G36*
G01*
X245617500Y-80675000D02*
X244867500Y-80675000D01*
G75*
G02*
X244805000Y-80612500I0J62500D01*
G01*
X244805000Y-80487500D01*
G75*
G02*
X244867500Y-80425000I62500J0D01*
G01*
X245617500Y-80425000D01*
G75*
G02*
X245680000Y-80487500I0J-62500D01*
G01*
X245680000Y-80612500D01*
G75*
G02*
X245617500Y-80675000I-62500J0D01*
G01*
G37*
G36*
G01*
X245617500Y-80175000D02*
X244867500Y-80175000D01*
G75*
G02*
X244805000Y-80112500I0J62500D01*
G01*
X244805000Y-79987500D01*
G75*
G02*
X244867500Y-79925000I62500J0D01*
G01*
X245617500Y-79925000D01*
G75*
G02*
X245680000Y-79987500I0J-62500D01*
G01*
X245680000Y-80112500D01*
G75*
G02*
X245617500Y-80175000I-62500J0D01*
G01*
G37*
G36*
G01*
X245617500Y-79675000D02*
X244867500Y-79675000D01*
G75*
G02*
X244805000Y-79612500I0J62500D01*
G01*
X244805000Y-79487500D01*
G75*
G02*
X244867500Y-79425000I62500J0D01*
G01*
X245617500Y-79425000D01*
G75*
G02*
X245680000Y-79487500I0J-62500D01*
G01*
X245680000Y-79612500D01*
G75*
G02*
X245617500Y-79675000I-62500J0D01*
G01*
G37*
G36*
G01*
X245617500Y-79175000D02*
X244867500Y-79175000D01*
G75*
G02*
X244805000Y-79112500I0J62500D01*
G01*
X244805000Y-78987500D01*
G75*
G02*
X244867500Y-78925000I62500J0D01*
G01*
X245617500Y-78925000D01*
G75*
G02*
X245680000Y-78987500I0J-62500D01*
G01*
X245680000Y-79112500D01*
G75*
G02*
X245617500Y-79175000I-62500J0D01*
G01*
G37*
G36*
G01*
X245617500Y-78675000D02*
X244867500Y-78675000D01*
G75*
G02*
X244805000Y-78612500I0J62500D01*
G01*
X244805000Y-78487500D01*
G75*
G02*
X244867500Y-78425000I62500J0D01*
G01*
X245617500Y-78425000D01*
G75*
G02*
X245680000Y-78487500I0J-62500D01*
G01*
X245680000Y-78612500D01*
G75*
G02*
X245617500Y-78675000I-62500J0D01*
G01*
G37*
G36*
G01*
X245992500Y-78300000D02*
X245867500Y-78300000D01*
G75*
G02*
X245805000Y-78237500I0J62500D01*
G01*
X245805000Y-77487500D01*
G75*
G02*
X245867500Y-77425000I62500J0D01*
G01*
X245992500Y-77425000D01*
G75*
G02*
X246055000Y-77487500I0J-62500D01*
G01*
X246055000Y-78237500D01*
G75*
G02*
X245992500Y-78300000I-62500J0D01*
G01*
G37*
G36*
G01*
X246492500Y-78300000D02*
X246367500Y-78300000D01*
G75*
G02*
X246305000Y-78237500I0J62500D01*
G01*
X246305000Y-77487500D01*
G75*
G02*
X246367500Y-77425000I62500J0D01*
G01*
X246492500Y-77425000D01*
G75*
G02*
X246555000Y-77487500I0J-62500D01*
G01*
X246555000Y-78237500D01*
G75*
G02*
X246492500Y-78300000I-62500J0D01*
G01*
G37*
G36*
G01*
X246992500Y-78300000D02*
X246867500Y-78300000D01*
G75*
G02*
X246805000Y-78237500I0J62500D01*
G01*
X246805000Y-77487500D01*
G75*
G02*
X246867500Y-77425000I62500J0D01*
G01*
X246992500Y-77425000D01*
G75*
G02*
X247055000Y-77487500I0J-62500D01*
G01*
X247055000Y-78237500D01*
G75*
G02*
X246992500Y-78300000I-62500J0D01*
G01*
G37*
G36*
G01*
X247492500Y-78300000D02*
X247367500Y-78300000D01*
G75*
G02*
X247305000Y-78237500I0J62500D01*
G01*
X247305000Y-77487500D01*
G75*
G02*
X247367500Y-77425000I62500J0D01*
G01*
X247492500Y-77425000D01*
G75*
G02*
X247555000Y-77487500I0J-62500D01*
G01*
X247555000Y-78237500D01*
G75*
G02*
X247492500Y-78300000I-62500J0D01*
G01*
G37*
G36*
G01*
X247992500Y-78300000D02*
X247867500Y-78300000D01*
G75*
G02*
X247805000Y-78237500I0J62500D01*
G01*
X247805000Y-77487500D01*
G75*
G02*
X247867500Y-77425000I62500J0D01*
G01*
X247992500Y-77425000D01*
G75*
G02*
X248055000Y-77487500I0J-62500D01*
G01*
X248055000Y-78237500D01*
G75*
G02*
X247992500Y-78300000I-62500J0D01*
G01*
G37*
G36*
G01*
X248492500Y-78300000D02*
X248367500Y-78300000D01*
G75*
G02*
X248305000Y-78237500I0J62500D01*
G01*
X248305000Y-77487500D01*
G75*
G02*
X248367500Y-77425000I62500J0D01*
G01*
X248492500Y-77425000D01*
G75*
G02*
X248555000Y-77487500I0J-62500D01*
G01*
X248555000Y-78237500D01*
G75*
G02*
X248492500Y-78300000I-62500J0D01*
G01*
G37*
G36*
G01*
X248992500Y-78300000D02*
X248867500Y-78300000D01*
G75*
G02*
X248805000Y-78237500I0J62500D01*
G01*
X248805000Y-77487500D01*
G75*
G02*
X248867500Y-77425000I62500J0D01*
G01*
X248992500Y-77425000D01*
G75*
G02*
X249055000Y-77487500I0J-62500D01*
G01*
X249055000Y-78237500D01*
G75*
G02*
X248992500Y-78300000I-62500J0D01*
G01*
G37*
G36*
G01*
X249492500Y-78300000D02*
X249367500Y-78300000D01*
G75*
G02*
X249305000Y-78237500I0J62500D01*
G01*
X249305000Y-77487500D01*
G75*
G02*
X249367500Y-77425000I62500J0D01*
G01*
X249492500Y-77425000D01*
G75*
G02*
X249555000Y-77487500I0J-62500D01*
G01*
X249555000Y-78237500D01*
G75*
G02*
X249492500Y-78300000I-62500J0D01*
G01*
G37*
G36*
G01*
X250492500Y-78675000D02*
X249742500Y-78675000D01*
G75*
G02*
X249680000Y-78612500I0J62500D01*
G01*
X249680000Y-78487500D01*
G75*
G02*
X249742500Y-78425000I62500J0D01*
G01*
X250492500Y-78425000D01*
G75*
G02*
X250555000Y-78487500I0J-62500D01*
G01*
X250555000Y-78612500D01*
G75*
G02*
X250492500Y-78675000I-62500J0D01*
G01*
G37*
G36*
G01*
X250492500Y-79175000D02*
X249742500Y-79175000D01*
G75*
G02*
X249680000Y-79112500I0J62500D01*
G01*
X249680000Y-78987500D01*
G75*
G02*
X249742500Y-78925000I62500J0D01*
G01*
X250492500Y-78925000D01*
G75*
G02*
X250555000Y-78987500I0J-62500D01*
G01*
X250555000Y-79112500D01*
G75*
G02*
X250492500Y-79175000I-62500J0D01*
G01*
G37*
G36*
G01*
X250492500Y-79675000D02*
X249742500Y-79675000D01*
G75*
G02*
X249680000Y-79612500I0J62500D01*
G01*
X249680000Y-79487500D01*
G75*
G02*
X249742500Y-79425000I62500J0D01*
G01*
X250492500Y-79425000D01*
G75*
G02*
X250555000Y-79487500I0J-62500D01*
G01*
X250555000Y-79612500D01*
G75*
G02*
X250492500Y-79675000I-62500J0D01*
G01*
G37*
G36*
G01*
X250492500Y-80175000D02*
X249742500Y-80175000D01*
G75*
G02*
X249680000Y-80112500I0J62500D01*
G01*
X249680000Y-79987500D01*
G75*
G02*
X249742500Y-79925000I62500J0D01*
G01*
X250492500Y-79925000D01*
G75*
G02*
X250555000Y-79987500I0J-62500D01*
G01*
X250555000Y-80112500D01*
G75*
G02*
X250492500Y-80175000I-62500J0D01*
G01*
G37*
G36*
G01*
X250492500Y-80675000D02*
X249742500Y-80675000D01*
G75*
G02*
X249680000Y-80612500I0J62500D01*
G01*
X249680000Y-80487500D01*
G75*
G02*
X249742500Y-80425000I62500J0D01*
G01*
X250492500Y-80425000D01*
G75*
G02*
X250555000Y-80487500I0J-62500D01*
G01*
X250555000Y-80612500D01*
G75*
G02*
X250492500Y-80675000I-62500J0D01*
G01*
G37*
G36*
G01*
X250492500Y-81175000D02*
X249742500Y-81175000D01*
G75*
G02*
X249680000Y-81112500I0J62500D01*
G01*
X249680000Y-80987500D01*
G75*
G02*
X249742500Y-80925000I62500J0D01*
G01*
X250492500Y-80925000D01*
G75*
G02*
X250555000Y-80987500I0J-62500D01*
G01*
X250555000Y-81112500D01*
G75*
G02*
X250492500Y-81175000I-62500J0D01*
G01*
G37*
G36*
G01*
X250492500Y-81675000D02*
X249742500Y-81675000D01*
G75*
G02*
X249680000Y-81612500I0J62500D01*
G01*
X249680000Y-81487500D01*
G75*
G02*
X249742500Y-81425000I62500J0D01*
G01*
X250492500Y-81425000D01*
G75*
G02*
X250555000Y-81487500I0J-62500D01*
G01*
X250555000Y-81612500D01*
G75*
G02*
X250492500Y-81675000I-62500J0D01*
G01*
G37*
G36*
G01*
X250492500Y-82175000D02*
X249742500Y-82175000D01*
G75*
G02*
X249680000Y-82112500I0J62500D01*
G01*
X249680000Y-81987500D01*
G75*
G02*
X249742500Y-81925000I62500J0D01*
G01*
X250492500Y-81925000D01*
G75*
G02*
X250555000Y-81987500I0J-62500D01*
G01*
X250555000Y-82112500D01*
G75*
G02*
X250492500Y-82175000I-62500J0D01*
G01*
G37*
G36*
G01*
X249062500Y-81915000D02*
X248597500Y-81915000D01*
G75*
G02*
X248365000Y-81682500I0J232500D01*
G01*
X248365000Y-81217500D01*
G75*
G02*
X248597500Y-80985000I232500J0D01*
G01*
X249062500Y-80985000D01*
G75*
G02*
X249295000Y-81217500I0J-232500D01*
G01*
X249295000Y-81682500D01*
G75*
G02*
X249062500Y-81915000I-232500J0D01*
G01*
G37*
G36*
G01*
X247912500Y-81915000D02*
X247447500Y-81915000D01*
G75*
G02*
X247215000Y-81682500I0J232500D01*
G01*
X247215000Y-81217500D01*
G75*
G02*
X247447500Y-80985000I232500J0D01*
G01*
X247912500Y-80985000D01*
G75*
G02*
X248145000Y-81217500I0J-232500D01*
G01*
X248145000Y-81682500D01*
G75*
G02*
X247912500Y-81915000I-232500J0D01*
G01*
G37*
G36*
G01*
X246762500Y-81915000D02*
X246297500Y-81915000D01*
G75*
G02*
X246065000Y-81682500I0J232500D01*
G01*
X246065000Y-81217500D01*
G75*
G02*
X246297500Y-80985000I232500J0D01*
G01*
X246762500Y-80985000D01*
G75*
G02*
X246995000Y-81217500I0J-232500D01*
G01*
X246995000Y-81682500D01*
G75*
G02*
X246762500Y-81915000I-232500J0D01*
G01*
G37*
G36*
G01*
X249062500Y-80765000D02*
X248597500Y-80765000D01*
G75*
G02*
X248365000Y-80532500I0J232500D01*
G01*
X248365000Y-80067500D01*
G75*
G02*
X248597500Y-79835000I232500J0D01*
G01*
X249062500Y-79835000D01*
G75*
G02*
X249295000Y-80067500I0J-232500D01*
G01*
X249295000Y-80532500D01*
G75*
G02*
X249062500Y-80765000I-232500J0D01*
G01*
G37*
G36*
G01*
X247912500Y-80765000D02*
X247447500Y-80765000D01*
G75*
G02*
X247215000Y-80532500I0J232500D01*
G01*
X247215000Y-80067500D01*
G75*
G02*
X247447500Y-79835000I232500J0D01*
G01*
X247912500Y-79835000D01*
G75*
G02*
X248145000Y-80067500I0J-232500D01*
G01*
X248145000Y-80532500D01*
G75*
G02*
X247912500Y-80765000I-232500J0D01*
G01*
G37*
G36*
G01*
X246762500Y-80765000D02*
X246297500Y-80765000D01*
G75*
G02*
X246065000Y-80532500I0J232500D01*
G01*
X246065000Y-80067500D01*
G75*
G02*
X246297500Y-79835000I232500J0D01*
G01*
X246762500Y-79835000D01*
G75*
G02*
X246995000Y-80067500I0J-232500D01*
G01*
X246995000Y-80532500D01*
G75*
G02*
X246762500Y-80765000I-232500J0D01*
G01*
G37*
G36*
G01*
X249062500Y-79615000D02*
X248597500Y-79615000D01*
G75*
G02*
X248365000Y-79382500I0J232500D01*
G01*
X248365000Y-78917500D01*
G75*
G02*
X248597500Y-78685000I232500J0D01*
G01*
X249062500Y-78685000D01*
G75*
G02*
X249295000Y-78917500I0J-232500D01*
G01*
X249295000Y-79382500D01*
G75*
G02*
X249062500Y-79615000I-232500J0D01*
G01*
G37*
G36*
G01*
X247912500Y-79615000D02*
X247447500Y-79615000D01*
G75*
G02*
X247215000Y-79382500I0J232500D01*
G01*
X247215000Y-78917500D01*
G75*
G02*
X247447500Y-78685000I232500J0D01*
G01*
X247912500Y-78685000D01*
G75*
G02*
X248145000Y-78917500I0J-232500D01*
G01*
X248145000Y-79382500D01*
G75*
G02*
X247912500Y-79615000I-232500J0D01*
G01*
G37*
G36*
G01*
X246762500Y-79615000D02*
X246297500Y-79615000D01*
G75*
G02*
X246065000Y-79382500I0J232500D01*
G01*
X246065000Y-78917500D01*
G75*
G02*
X246297500Y-78685000I232500J0D01*
G01*
X246762500Y-78685000D01*
G75*
G02*
X246995000Y-78917500I0J-232500D01*
G01*
X246995000Y-79382500D01*
G75*
G02*
X246762500Y-79615000I-232500J0D01*
G01*
G37*
%TD*%
%TO.C,U1*%
G36*
G01*
X242755000Y-75627500D02*
X242755000Y-75752500D01*
G75*
G02*
X242692500Y-75815000I-62500J0D01*
G01*
X241992500Y-75815000D01*
G75*
G02*
X241930000Y-75752500I0J62500D01*
G01*
X241930000Y-75627500D01*
G75*
G02*
X241992500Y-75565000I62500J0D01*
G01*
X242692500Y-75565000D01*
G75*
G02*
X242755000Y-75627500I0J-62500D01*
G01*
G37*
G36*
G01*
X242755000Y-76127500D02*
X242755000Y-76252500D01*
G75*
G02*
X242692500Y-76315000I-62500J0D01*
G01*
X241992500Y-76315000D01*
G75*
G02*
X241930000Y-76252500I0J62500D01*
G01*
X241930000Y-76127500D01*
G75*
G02*
X241992500Y-76065000I62500J0D01*
G01*
X242692500Y-76065000D01*
G75*
G02*
X242755000Y-76127500I0J-62500D01*
G01*
G37*
G36*
G01*
X242755000Y-76627500D02*
X242755000Y-76752500D01*
G75*
G02*
X242692500Y-76815000I-62500J0D01*
G01*
X241992500Y-76815000D01*
G75*
G02*
X241930000Y-76752500I0J62500D01*
G01*
X241930000Y-76627500D01*
G75*
G02*
X241992500Y-76565000I62500J0D01*
G01*
X242692500Y-76565000D01*
G75*
G02*
X242755000Y-76627500I0J-62500D01*
G01*
G37*
G36*
G01*
X242755000Y-77127500D02*
X242755000Y-77252500D01*
G75*
G02*
X242692500Y-77315000I-62500J0D01*
G01*
X241992500Y-77315000D01*
G75*
G02*
X241930000Y-77252500I0J62500D01*
G01*
X241930000Y-77127500D01*
G75*
G02*
X241992500Y-77065000I62500J0D01*
G01*
X242692500Y-77065000D01*
G75*
G02*
X242755000Y-77127500I0J-62500D01*
G01*
G37*
G36*
G01*
X242755000Y-77627500D02*
X242755000Y-77752500D01*
G75*
G02*
X242692500Y-77815000I-62500J0D01*
G01*
X241992500Y-77815000D01*
G75*
G02*
X241930000Y-77752500I0J62500D01*
G01*
X241930000Y-77627500D01*
G75*
G02*
X241992500Y-77565000I62500J0D01*
G01*
X242692500Y-77565000D01*
G75*
G02*
X242755000Y-77627500I0J-62500D01*
G01*
G37*
G36*
G01*
X242755000Y-78127500D02*
X242755000Y-78252500D01*
G75*
G02*
X242692500Y-78315000I-62500J0D01*
G01*
X241992500Y-78315000D01*
G75*
G02*
X241930000Y-78252500I0J62500D01*
G01*
X241930000Y-78127500D01*
G75*
G02*
X241992500Y-78065000I62500J0D01*
G01*
X242692500Y-78065000D01*
G75*
G02*
X242755000Y-78127500I0J-62500D01*
G01*
G37*
G36*
G01*
X241755000Y-78552500D02*
X241755000Y-79252500D01*
G75*
G02*
X241692500Y-79315000I-62500J0D01*
G01*
X241567500Y-79315000D01*
G75*
G02*
X241505000Y-79252500I0J62500D01*
G01*
X241505000Y-78552500D01*
G75*
G02*
X241567500Y-78490000I62500J0D01*
G01*
X241692500Y-78490000D01*
G75*
G02*
X241755000Y-78552500I0J-62500D01*
G01*
G37*
G36*
G01*
X241255000Y-78552500D02*
X241255000Y-79252500D01*
G75*
G02*
X241192500Y-79315000I-62500J0D01*
G01*
X241067500Y-79315000D01*
G75*
G02*
X241005000Y-79252500I0J62500D01*
G01*
X241005000Y-78552500D01*
G75*
G02*
X241067500Y-78490000I62500J0D01*
G01*
X241192500Y-78490000D01*
G75*
G02*
X241255000Y-78552500I0J-62500D01*
G01*
G37*
G36*
G01*
X240755000Y-78552500D02*
X240755000Y-79252500D01*
G75*
G02*
X240692500Y-79315000I-62500J0D01*
G01*
X240567500Y-79315000D01*
G75*
G02*
X240505000Y-79252500I0J62500D01*
G01*
X240505000Y-78552500D01*
G75*
G02*
X240567500Y-78490000I62500J0D01*
G01*
X240692500Y-78490000D01*
G75*
G02*
X240755000Y-78552500I0J-62500D01*
G01*
G37*
G36*
G01*
X240255000Y-78552500D02*
X240255000Y-79252500D01*
G75*
G02*
X240192500Y-79315000I-62500J0D01*
G01*
X240067500Y-79315000D01*
G75*
G02*
X240005000Y-79252500I0J62500D01*
G01*
X240005000Y-78552500D01*
G75*
G02*
X240067500Y-78490000I62500J0D01*
G01*
X240192500Y-78490000D01*
G75*
G02*
X240255000Y-78552500I0J-62500D01*
G01*
G37*
G36*
G01*
X239755000Y-78552500D02*
X239755000Y-79252500D01*
G75*
G02*
X239692500Y-79315000I-62500J0D01*
G01*
X239567500Y-79315000D01*
G75*
G02*
X239505000Y-79252500I0J62500D01*
G01*
X239505000Y-78552500D01*
G75*
G02*
X239567500Y-78490000I62500J0D01*
G01*
X239692500Y-78490000D01*
G75*
G02*
X239755000Y-78552500I0J-62500D01*
G01*
G37*
G36*
G01*
X239255000Y-78552500D02*
X239255000Y-79252500D01*
G75*
G02*
X239192500Y-79315000I-62500J0D01*
G01*
X239067500Y-79315000D01*
G75*
G02*
X239005000Y-79252500I0J62500D01*
G01*
X239005000Y-78552500D01*
G75*
G02*
X239067500Y-78490000I62500J0D01*
G01*
X239192500Y-78490000D01*
G75*
G02*
X239255000Y-78552500I0J-62500D01*
G01*
G37*
G36*
G01*
X238830000Y-78127500D02*
X238830000Y-78252500D01*
G75*
G02*
X238767500Y-78315000I-62500J0D01*
G01*
X238067500Y-78315000D01*
G75*
G02*
X238005000Y-78252500I0J62500D01*
G01*
X238005000Y-78127500D01*
G75*
G02*
X238067500Y-78065000I62500J0D01*
G01*
X238767500Y-78065000D01*
G75*
G02*
X238830000Y-78127500I0J-62500D01*
G01*
G37*
G36*
G01*
X238830000Y-77627500D02*
X238830000Y-77752500D01*
G75*
G02*
X238767500Y-77815000I-62500J0D01*
G01*
X238067500Y-77815000D01*
G75*
G02*
X238005000Y-77752500I0J62500D01*
G01*
X238005000Y-77627500D01*
G75*
G02*
X238067500Y-77565000I62500J0D01*
G01*
X238767500Y-77565000D01*
G75*
G02*
X238830000Y-77627500I0J-62500D01*
G01*
G37*
G36*
G01*
X238830000Y-77127500D02*
X238830000Y-77252500D01*
G75*
G02*
X238767500Y-77315000I-62500J0D01*
G01*
X238067500Y-77315000D01*
G75*
G02*
X238005000Y-77252500I0J62500D01*
G01*
X238005000Y-77127500D01*
G75*
G02*
X238067500Y-77065000I62500J0D01*
G01*
X238767500Y-77065000D01*
G75*
G02*
X238830000Y-77127500I0J-62500D01*
G01*
G37*
G36*
G01*
X238830000Y-76627500D02*
X238830000Y-76752500D01*
G75*
G02*
X238767500Y-76815000I-62500J0D01*
G01*
X238067500Y-76815000D01*
G75*
G02*
X238005000Y-76752500I0J62500D01*
G01*
X238005000Y-76627500D01*
G75*
G02*
X238067500Y-76565000I62500J0D01*
G01*
X238767500Y-76565000D01*
G75*
G02*
X238830000Y-76627500I0J-62500D01*
G01*
G37*
G36*
G01*
X238830000Y-76127500D02*
X238830000Y-76252500D01*
G75*
G02*
X238767500Y-76315000I-62500J0D01*
G01*
X238067500Y-76315000D01*
G75*
G02*
X238005000Y-76252500I0J62500D01*
G01*
X238005000Y-76127500D01*
G75*
G02*
X238067500Y-76065000I62500J0D01*
G01*
X238767500Y-76065000D01*
G75*
G02*
X238830000Y-76127500I0J-62500D01*
G01*
G37*
G36*
G01*
X238830000Y-75627500D02*
X238830000Y-75752500D01*
G75*
G02*
X238767500Y-75815000I-62500J0D01*
G01*
X238067500Y-75815000D01*
G75*
G02*
X238005000Y-75752500I0J62500D01*
G01*
X238005000Y-75627500D01*
G75*
G02*
X238067500Y-75565000I62500J0D01*
G01*
X238767500Y-75565000D01*
G75*
G02*
X238830000Y-75627500I0J-62500D01*
G01*
G37*
G36*
G01*
X239255000Y-74627500D02*
X239255000Y-75327500D01*
G75*
G02*
X239192500Y-75390000I-62500J0D01*
G01*
X239067500Y-75390000D01*
G75*
G02*
X239005000Y-75327500I0J62500D01*
G01*
X239005000Y-74627500D01*
G75*
G02*
X239067500Y-74565000I62500J0D01*
G01*
X239192500Y-74565000D01*
G75*
G02*
X239255000Y-74627500I0J-62500D01*
G01*
G37*
G36*
G01*
X239755000Y-74627500D02*
X239755000Y-75327500D01*
G75*
G02*
X239692500Y-75390000I-62500J0D01*
G01*
X239567500Y-75390000D01*
G75*
G02*
X239505000Y-75327500I0J62500D01*
G01*
X239505000Y-74627500D01*
G75*
G02*
X239567500Y-74565000I62500J0D01*
G01*
X239692500Y-74565000D01*
G75*
G02*
X239755000Y-74627500I0J-62500D01*
G01*
G37*
G36*
G01*
X240255000Y-74627500D02*
X240255000Y-75327500D01*
G75*
G02*
X240192500Y-75390000I-62500J0D01*
G01*
X240067500Y-75390000D01*
G75*
G02*
X240005000Y-75327500I0J62500D01*
G01*
X240005000Y-74627500D01*
G75*
G02*
X240067500Y-74565000I62500J0D01*
G01*
X240192500Y-74565000D01*
G75*
G02*
X240255000Y-74627500I0J-62500D01*
G01*
G37*
G36*
G01*
X240755000Y-74627500D02*
X240755000Y-75327500D01*
G75*
G02*
X240692500Y-75390000I-62500J0D01*
G01*
X240567500Y-75390000D01*
G75*
G02*
X240505000Y-75327500I0J62500D01*
G01*
X240505000Y-74627500D01*
G75*
G02*
X240567500Y-74565000I62500J0D01*
G01*
X240692500Y-74565000D01*
G75*
G02*
X240755000Y-74627500I0J-62500D01*
G01*
G37*
G36*
G01*
X241255000Y-74627500D02*
X241255000Y-75327500D01*
G75*
G02*
X241192500Y-75390000I-62500J0D01*
G01*
X241067500Y-75390000D01*
G75*
G02*
X241005000Y-75327500I0J62500D01*
G01*
X241005000Y-74627500D01*
G75*
G02*
X241067500Y-74565000I62500J0D01*
G01*
X241192500Y-74565000D01*
G75*
G02*
X241255000Y-74627500I0J-62500D01*
G01*
G37*
G36*
G01*
X241755000Y-74627500D02*
X241755000Y-75327500D01*
G75*
G02*
X241692500Y-75390000I-62500J0D01*
G01*
X241567500Y-75390000D01*
G75*
G02*
X241505000Y-75327500I0J62500D01*
G01*
X241505000Y-74627500D01*
G75*
G02*
X241567500Y-74565000I62500J0D01*
G01*
X241692500Y-74565000D01*
G75*
G02*
X241755000Y-74627500I0J-62500D01*
G01*
G37*
G36*
G01*
X241600000Y-75970000D02*
X241600000Y-76560000D01*
G75*
G02*
X241350000Y-76810000I-250000J0D01*
G01*
X240760000Y-76810000D01*
G75*
G02*
X240510000Y-76560000I0J250000D01*
G01*
X240510000Y-75970000D01*
G75*
G02*
X240760000Y-75720000I250000J0D01*
G01*
X241350000Y-75720000D01*
G75*
G02*
X241600000Y-75970000I0J-250000D01*
G01*
G37*
G36*
G01*
X241600000Y-77320000D02*
X241600000Y-77910000D01*
G75*
G02*
X241350000Y-78160000I-250000J0D01*
G01*
X240760000Y-78160000D01*
G75*
G02*
X240510000Y-77910000I0J250000D01*
G01*
X240510000Y-77320000D01*
G75*
G02*
X240760000Y-77070000I250000J0D01*
G01*
X241350000Y-77070000D01*
G75*
G02*
X241600000Y-77320000I0J-250000D01*
G01*
G37*
G36*
G01*
X240250000Y-75970000D02*
X240250000Y-76560000D01*
G75*
G02*
X240000000Y-76810000I-250000J0D01*
G01*
X239410000Y-76810000D01*
G75*
G02*
X239160000Y-76560000I0J250000D01*
G01*
X239160000Y-75970000D01*
G75*
G02*
X239410000Y-75720000I250000J0D01*
G01*
X240000000Y-75720000D01*
G75*
G02*
X240250000Y-75970000I0J-250000D01*
G01*
G37*
G36*
G01*
X240250000Y-77320000D02*
X240250000Y-77910000D01*
G75*
G02*
X240000000Y-78160000I-250000J0D01*
G01*
X239410000Y-78160000D01*
G75*
G02*
X239160000Y-77910000I0J250000D01*
G01*
X239160000Y-77320000D01*
G75*
G02*
X239410000Y-77070000I250000J0D01*
G01*
X240000000Y-77070000D01*
G75*
G02*
X240250000Y-77320000I0J-250000D01*
G01*
G37*
%TD*%
M02*
