%TF.GenerationSoftware,KiCad,Pcbnew,(5.1.6-0-10_14)*%
%TF.CreationDate,2021-03-16T08:34:44-04:00*%
%TF.ProjectId,F051_ESC,46303531-5f45-4534-932e-6b696361645f,rev?*%
%TF.SameCoordinates,Original*%
%TF.FileFunction,Legend,Bot*%
%TF.FilePolarity,Positive*%
%FSLAX46Y46*%
G04 Gerber Fmt 4.6, Leading zero omitted, Abs format (unit mm)*
G04 Created by KiCad (PCBNEW (5.1.6-0-10_14)) date 2021-03-16 08:34:44*
%MOMM*%
%LPD*%
G01*
G04 APERTURE LIST*
%ADD10C,0.100000*%
%ADD11C,0.250000*%
%ADD12C,0.375000*%
%ADD13C,0.200000*%
%ADD14C,0.120000*%
G04 APERTURE END LIST*
D10*
X244785238Y-76199047D02*
X245013809Y-76199047D01*
X244899523Y-75799047D02*
X244899523Y-76199047D01*
X245109047Y-76199047D02*
X245375714Y-75799047D01*
X245375714Y-76199047D02*
X245109047Y-75799047D01*
X247533333Y-75819047D02*
X247400000Y-76009523D01*
X247304761Y-75819047D02*
X247304761Y-76219047D01*
X247457142Y-76219047D01*
X247495238Y-76200000D01*
X247514285Y-76180952D01*
X247533333Y-76142857D01*
X247533333Y-76085714D01*
X247514285Y-76047619D01*
X247495238Y-76028571D01*
X247457142Y-76009523D01*
X247304761Y-76009523D01*
X247666666Y-76219047D02*
X247933333Y-75819047D01*
X247933333Y-76219047D02*
X247666666Y-75819047D01*
X249442857Y-75819047D02*
X249442857Y-76219047D01*
X249671428Y-75819047D01*
X249671428Y-76219047D01*
X250090476Y-75819047D02*
X249957142Y-76009523D01*
X249861904Y-75819047D02*
X249861904Y-76219047D01*
X250014285Y-76219047D01*
X250052380Y-76200000D01*
X250071428Y-76180952D01*
X250090476Y-76142857D01*
X250090476Y-76085714D01*
X250071428Y-76047619D01*
X250052380Y-76028571D01*
X250014285Y-76009523D01*
X249861904Y-76009523D01*
X250242857Y-75838095D02*
X250300000Y-75819047D01*
X250395238Y-75819047D01*
X250433333Y-75838095D01*
X250452380Y-75857142D01*
X250471428Y-75895238D01*
X250471428Y-75933333D01*
X250452380Y-75971428D01*
X250433333Y-75990476D01*
X250395238Y-76009523D01*
X250319047Y-76028571D01*
X250280952Y-76047619D01*
X250261904Y-76066666D01*
X250242857Y-76104761D01*
X250242857Y-76142857D01*
X250261904Y-76180952D01*
X250280952Y-76200000D01*
X250319047Y-76219047D01*
X250414285Y-76219047D01*
X250471428Y-76200000D01*
X250585714Y-76219047D02*
X250814285Y-76219047D01*
X250700000Y-75819047D02*
X250700000Y-76219047D01*
X241702380Y-72838095D02*
X241759523Y-72819047D01*
X241854761Y-72819047D01*
X241892857Y-72838095D01*
X241911904Y-72857142D01*
X241930952Y-72895238D01*
X241930952Y-72933333D01*
X241911904Y-72971428D01*
X241892857Y-72990476D01*
X241854761Y-73009523D01*
X241778571Y-73028571D01*
X241740476Y-73047619D01*
X241721428Y-73066666D01*
X241702380Y-73104761D01*
X241702380Y-73142857D01*
X241721428Y-73180952D01*
X241740476Y-73200000D01*
X241778571Y-73219047D01*
X241873809Y-73219047D01*
X241930952Y-73200000D01*
X242064285Y-73219047D02*
X242159523Y-72819047D01*
X242235714Y-73104761D01*
X242311904Y-72819047D01*
X242407142Y-73219047D01*
X242559523Y-72819047D02*
X242559523Y-73219047D01*
X242654761Y-73219047D01*
X242711904Y-73200000D01*
X242750000Y-73161904D01*
X242769047Y-73123809D01*
X242788095Y-73047619D01*
X242788095Y-72990476D01*
X242769047Y-72914285D01*
X242750000Y-72876190D01*
X242711904Y-72838095D01*
X242654761Y-72819047D01*
X242559523Y-72819047D01*
X242959523Y-72819047D02*
X242959523Y-73219047D01*
X243226190Y-73219047D02*
X243302380Y-73219047D01*
X243340476Y-73200000D01*
X243378571Y-73161904D01*
X243397619Y-73085714D01*
X243397619Y-72952380D01*
X243378571Y-72876190D01*
X243340476Y-72838095D01*
X243302380Y-72819047D01*
X243226190Y-72819047D01*
X243188095Y-72838095D01*
X243150000Y-72876190D01*
X243130952Y-72952380D01*
X243130952Y-73085714D01*
X243150000Y-73161904D01*
X243188095Y-73200000D01*
X243226190Y-73219047D01*
X244245238Y-72838095D02*
X244302380Y-72819047D01*
X244397619Y-72819047D01*
X244435714Y-72838095D01*
X244454761Y-72857142D01*
X244473809Y-72895238D01*
X244473809Y-72933333D01*
X244454761Y-72971428D01*
X244435714Y-72990476D01*
X244397619Y-73009523D01*
X244321428Y-73028571D01*
X244283333Y-73047619D01*
X244264285Y-73066666D01*
X244245238Y-73104761D01*
X244245238Y-73142857D01*
X244264285Y-73180952D01*
X244283333Y-73200000D01*
X244321428Y-73219047D01*
X244416666Y-73219047D01*
X244473809Y-73200000D01*
X244607142Y-73219047D02*
X244702380Y-72819047D01*
X244778571Y-73104761D01*
X244854761Y-72819047D01*
X244950000Y-73219047D01*
X245330952Y-72857142D02*
X245311904Y-72838095D01*
X245254761Y-72819047D01*
X245216666Y-72819047D01*
X245159523Y-72838095D01*
X245121428Y-72876190D01*
X245102380Y-72914285D01*
X245083333Y-72990476D01*
X245083333Y-73047619D01*
X245102380Y-73123809D01*
X245121428Y-73161904D01*
X245159523Y-73200000D01*
X245216666Y-73219047D01*
X245254761Y-73219047D01*
X245311904Y-73200000D01*
X245330952Y-73180952D01*
X245692857Y-72819047D02*
X245502380Y-72819047D01*
X245502380Y-73219047D01*
X245826190Y-72819047D02*
X245826190Y-73219047D01*
X246054761Y-72819047D02*
X245883333Y-73047619D01*
X246054761Y-73219047D02*
X245826190Y-72990476D01*
X247325238Y-73200000D02*
X247287142Y-73219047D01*
X247230000Y-73219047D01*
X247172857Y-73200000D01*
X247134761Y-73161904D01*
X247115714Y-73123809D01*
X247096666Y-73047619D01*
X247096666Y-72990476D01*
X247115714Y-72914285D01*
X247134761Y-72876190D01*
X247172857Y-72838095D01*
X247230000Y-72819047D01*
X247268095Y-72819047D01*
X247325238Y-72838095D01*
X247344285Y-72857142D01*
X247344285Y-72990476D01*
X247268095Y-72990476D01*
X247515714Y-72819047D02*
X247515714Y-73219047D01*
X247744285Y-72819047D01*
X247744285Y-73219047D01*
X247934761Y-72819047D02*
X247934761Y-73219047D01*
X248030000Y-73219047D01*
X248087142Y-73200000D01*
X248125238Y-73161904D01*
X248144285Y-73123809D01*
X248163333Y-73047619D01*
X248163333Y-72990476D01*
X248144285Y-72914285D01*
X248125238Y-72876190D01*
X248087142Y-72838095D01*
X248030000Y-72819047D01*
X247934761Y-72819047D01*
X249624761Y-73219047D02*
X249872380Y-73219047D01*
X249739047Y-73066666D01*
X249796190Y-73066666D01*
X249834285Y-73047619D01*
X249853333Y-73028571D01*
X249872380Y-72990476D01*
X249872380Y-72895238D01*
X249853333Y-72857142D01*
X249834285Y-72838095D01*
X249796190Y-72819047D01*
X249681904Y-72819047D01*
X249643809Y-72838095D01*
X249624761Y-72857142D01*
X249986666Y-73219047D02*
X250120000Y-72819047D01*
X250253333Y-73219047D01*
X250348571Y-73219047D02*
X250596190Y-73219047D01*
X250462857Y-73066666D01*
X250520000Y-73066666D01*
X250558095Y-73047619D01*
X250577142Y-73028571D01*
X250596190Y-72990476D01*
X250596190Y-72895238D01*
X250577142Y-72857142D01*
X250558095Y-72838095D01*
X250520000Y-72819047D01*
X250405714Y-72819047D01*
X250367619Y-72838095D01*
X250348571Y-72857142D01*
D11*
X256777380Y-78404761D02*
X255777380Y-78404761D01*
X256491666Y-78738095D01*
X255777380Y-79071428D01*
X256777380Y-79071428D01*
X256777380Y-79547619D02*
X255777380Y-79547619D01*
X256777380Y-80023809D02*
X255777380Y-80023809D01*
X255777380Y-80261904D01*
X255825000Y-80404761D01*
X255920238Y-80500000D01*
X256015476Y-80547619D01*
X256205952Y-80595238D01*
X256348809Y-80595238D01*
X256539285Y-80547619D01*
X256634523Y-80500000D01*
X256729761Y-80404761D01*
X256777380Y-80261904D01*
X256777380Y-80023809D01*
X256777380Y-81023809D02*
X255777380Y-81023809D01*
X256777380Y-81595238D01*
X255777380Y-81595238D01*
X257527380Y-77761904D02*
X258527380Y-78000000D01*
X257813095Y-78190476D01*
X258527380Y-78380952D01*
X257527380Y-78619047D01*
X257527380Y-79190476D02*
X257527380Y-79380952D01*
X257575000Y-79476190D01*
X257670238Y-79571428D01*
X257860714Y-79619047D01*
X258194047Y-79619047D01*
X258384523Y-79571428D01*
X258479761Y-79476190D01*
X258527380Y-79380952D01*
X258527380Y-79190476D01*
X258479761Y-79095238D01*
X258384523Y-79000000D01*
X258194047Y-78952380D01*
X257860714Y-78952380D01*
X257670238Y-79000000D01*
X257575000Y-79095238D01*
X257527380Y-79190476D01*
X258527380Y-80523809D02*
X258527380Y-80047619D01*
X257527380Y-80047619D01*
X258003571Y-81190476D02*
X258003571Y-80857142D01*
X258527380Y-80857142D02*
X257527380Y-80857142D01*
X257527380Y-81333333D01*
X258003571Y-81714285D02*
X258003571Y-82047619D01*
X258527380Y-82190476D02*
X258527380Y-81714285D01*
X257527380Y-81714285D01*
X257527380Y-82190476D01*
D12*
X251421700Y-89479822D02*
X252229822Y-88671700D01*
X252229822Y-89479822D02*
X251421700Y-88671700D01*
X251421700Y-71229822D02*
X252229822Y-70421700D01*
D13*
%TO.C,Q5*%
X224600000Y-88700000D02*
G75*
G03*
X224600000Y-88700000I-100000J0D01*
G01*
D10*
X226000000Y-89350000D02*
X231000000Y-89350000D01*
X226000000Y-84250000D02*
X231000000Y-84250000D01*
D14*
%TO.C,U7*%
X240260000Y-87220000D02*
X240260000Y-84770000D01*
X243480000Y-85420000D02*
X243480000Y-87220000D01*
%TO.C,FB1*%
X248887221Y-85600000D02*
X249212779Y-85600000D01*
X248887221Y-86620000D02*
X249212779Y-86620000D01*
%TO.C,U5*%
X244720000Y-85570000D02*
X246520000Y-85570000D01*
%TO.C,D4*%
X234900000Y-78840000D02*
X236100000Y-78840000D01*
X234900000Y-80690000D02*
X234900000Y-78840000D01*
X236100000Y-80690000D02*
X236100000Y-78840000D01*
%TO.C,D3*%
X234900000Y-71760000D02*
X236100000Y-71760000D01*
X234900000Y-73610000D02*
X234900000Y-71760000D01*
X236100000Y-73610000D02*
X236100000Y-71760000D01*
%TO.C,D2*%
X234900000Y-75300000D02*
X236100000Y-75300000D01*
X234900000Y-77150000D02*
X234900000Y-75300000D01*
X236100000Y-77150000D02*
X236100000Y-75300000D01*
%TO.C,C12*%
X236470000Y-76777221D02*
X236470000Y-77102779D01*
X237490000Y-76777221D02*
X237490000Y-77102779D01*
D13*
%TO.C,Q3*%
X224600000Y-81900000D02*
G75*
G03*
X224600000Y-81900000I-100000J0D01*
G01*
D10*
X226000000Y-82550000D02*
X231000000Y-82550000D01*
X226000000Y-77450000D02*
X231000000Y-77450000D01*
D13*
%TO.C,Q1*%
X224640000Y-75100000D02*
G75*
G03*
X224640000Y-75100000I-100000J0D01*
G01*
D10*
X226040000Y-75750000D02*
X231040000Y-75750000D01*
X226040000Y-70650000D02*
X231040000Y-70650000D01*
D14*
%TO.C,C14*%
X236470000Y-79787221D02*
X236470000Y-80112779D01*
X237490000Y-79787221D02*
X237490000Y-80112779D01*
%TO.C,C13*%
X236470000Y-73767221D02*
X236470000Y-74092779D01*
X237490000Y-73767221D02*
X237490000Y-74092779D01*
%TO.C,U2*%
X250290000Y-78165000D02*
X250290000Y-77690000D01*
X250290000Y-77690000D02*
X249815000Y-77690000D01*
X245070000Y-82435000D02*
X245070000Y-82910000D01*
X245070000Y-82910000D02*
X245545000Y-82910000D01*
X245070000Y-78165000D02*
X245070000Y-77690000D01*
X245070000Y-77690000D02*
X245545000Y-77690000D01*
X250290000Y-82435000D02*
X250290000Y-82910000D01*
%TO.C,U1*%
X238745000Y-74830000D02*
X238270000Y-74830000D01*
X238270000Y-74830000D02*
X238270000Y-75305000D01*
X242015000Y-79050000D02*
X242490000Y-79050000D01*
X242490000Y-79050000D02*
X242490000Y-78575000D01*
X238745000Y-79050000D02*
X238270000Y-79050000D01*
X238270000Y-79050000D02*
X238270000Y-78575000D01*
X242015000Y-74830000D02*
X242490000Y-74830000D01*
%TD*%
M02*
