%TF.GenerationSoftware,KiCad,Pcbnew,(5.1.6-0-10_14)*%
%TF.CreationDate,2021-03-16T08:34:44-04:00*%
%TF.ProjectId,F051_ESC,46303531-5f45-4534-932e-6b696361645f,rev?*%
%TF.SameCoordinates,Original*%
%TF.FileFunction,Legend,Top*%
%TF.FilePolarity,Positive*%
%FSLAX46Y46*%
G04 Gerber Fmt 4.6, Leading zero omitted, Abs format (unit mm)*
G04 Created by KiCad (PCBNEW (5.1.6-0-10_14)) date 2021-03-16 08:34:44*
%MOMM*%
%LPD*%
G01*
G04 APERTURE LIST*
%ADD10C,0.100000*%
%ADD11C,0.125000*%
%ADD12C,0.375000*%
%ADD13C,0.120000*%
%ADD14C,0.200000*%
G04 APERTURE END LIST*
D10*
X245394761Y-76599047D02*
X245166190Y-76599047D01*
X245280476Y-76199047D02*
X245280476Y-76599047D01*
X245070952Y-76599047D02*
X244804285Y-76199047D01*
X244804285Y-76599047D02*
X245070952Y-76199047D01*
X247696666Y-76199047D02*
X247830000Y-76389523D01*
X247925238Y-76199047D02*
X247925238Y-76599047D01*
X247772857Y-76599047D01*
X247734761Y-76580000D01*
X247715714Y-76560952D01*
X247696666Y-76522857D01*
X247696666Y-76465714D01*
X247715714Y-76427619D01*
X247734761Y-76408571D01*
X247772857Y-76389523D01*
X247925238Y-76389523D01*
X247563333Y-76599047D02*
X247296666Y-76199047D01*
X247296666Y-76599047D02*
X247563333Y-76199047D01*
X250777142Y-76199047D02*
X250777142Y-76599047D01*
X250548571Y-76199047D01*
X250548571Y-76599047D01*
X250129523Y-76199047D02*
X250262857Y-76389523D01*
X250358095Y-76199047D02*
X250358095Y-76599047D01*
X250205714Y-76599047D01*
X250167619Y-76580000D01*
X250148571Y-76560952D01*
X250129523Y-76522857D01*
X250129523Y-76465714D01*
X250148571Y-76427619D01*
X250167619Y-76408571D01*
X250205714Y-76389523D01*
X250358095Y-76389523D01*
X249977142Y-76218095D02*
X249920000Y-76199047D01*
X249824761Y-76199047D01*
X249786666Y-76218095D01*
X249767619Y-76237142D01*
X249748571Y-76275238D01*
X249748571Y-76313333D01*
X249767619Y-76351428D01*
X249786666Y-76370476D01*
X249824761Y-76389523D01*
X249900952Y-76408571D01*
X249939047Y-76427619D01*
X249958095Y-76446666D01*
X249977142Y-76484761D01*
X249977142Y-76522857D01*
X249958095Y-76560952D01*
X249939047Y-76580000D01*
X249900952Y-76599047D01*
X249805714Y-76599047D01*
X249748571Y-76580000D01*
X249634285Y-76599047D02*
X249405714Y-76599047D01*
X249520000Y-76199047D02*
X249520000Y-76599047D01*
X250615238Y-73219047D02*
X250367619Y-73219047D01*
X250500952Y-73066666D01*
X250443809Y-73066666D01*
X250405714Y-73047619D01*
X250386666Y-73028571D01*
X250367619Y-72990476D01*
X250367619Y-72895238D01*
X250386666Y-72857142D01*
X250405714Y-72838095D01*
X250443809Y-72819047D01*
X250558095Y-72819047D01*
X250596190Y-72838095D01*
X250615238Y-72857142D01*
X250253333Y-73219047D02*
X250120000Y-72819047D01*
X249986666Y-73219047D01*
X249891428Y-73219047D02*
X249643809Y-73219047D01*
X249777142Y-73066666D01*
X249720000Y-73066666D01*
X249681904Y-73047619D01*
X249662857Y-73028571D01*
X249643809Y-72990476D01*
X249643809Y-72895238D01*
X249662857Y-72857142D01*
X249681904Y-72838095D01*
X249720000Y-72819047D01*
X249834285Y-72819047D01*
X249872380Y-72838095D01*
X249891428Y-72857142D01*
X247934761Y-73200000D02*
X247972857Y-73219047D01*
X248030000Y-73219047D01*
X248087142Y-73200000D01*
X248125238Y-73161904D01*
X248144285Y-73123809D01*
X248163333Y-73047619D01*
X248163333Y-72990476D01*
X248144285Y-72914285D01*
X248125238Y-72876190D01*
X248087142Y-72838095D01*
X248030000Y-72819047D01*
X247991904Y-72819047D01*
X247934761Y-72838095D01*
X247915714Y-72857142D01*
X247915714Y-72990476D01*
X247991904Y-72990476D01*
X247744285Y-72819047D02*
X247744285Y-73219047D01*
X247515714Y-72819047D01*
X247515714Y-73219047D01*
X247325238Y-72819047D02*
X247325238Y-73219047D01*
X247230000Y-73219047D01*
X247172857Y-73200000D01*
X247134761Y-73161904D01*
X247115714Y-73123809D01*
X247096666Y-73047619D01*
X247096666Y-72990476D01*
X247115714Y-72914285D01*
X247134761Y-72876190D01*
X247172857Y-72838095D01*
X247230000Y-72819047D01*
X247325238Y-72819047D01*
X246054761Y-72838095D02*
X245997619Y-72819047D01*
X245902380Y-72819047D01*
X245864285Y-72838095D01*
X245845238Y-72857142D01*
X245826190Y-72895238D01*
X245826190Y-72933333D01*
X245845238Y-72971428D01*
X245864285Y-72990476D01*
X245902380Y-73009523D01*
X245978571Y-73028571D01*
X246016666Y-73047619D01*
X246035714Y-73066666D01*
X246054761Y-73104761D01*
X246054761Y-73142857D01*
X246035714Y-73180952D01*
X246016666Y-73200000D01*
X245978571Y-73219047D01*
X245883333Y-73219047D01*
X245826190Y-73200000D01*
X245692857Y-73219047D02*
X245597619Y-72819047D01*
X245521428Y-73104761D01*
X245445238Y-72819047D01*
X245350000Y-73219047D01*
X244969047Y-72857142D02*
X244988095Y-72838095D01*
X245045238Y-72819047D01*
X245083333Y-72819047D01*
X245140476Y-72838095D01*
X245178571Y-72876190D01*
X245197619Y-72914285D01*
X245216666Y-72990476D01*
X245216666Y-73047619D01*
X245197619Y-73123809D01*
X245178571Y-73161904D01*
X245140476Y-73200000D01*
X245083333Y-73219047D01*
X245045238Y-73219047D01*
X244988095Y-73200000D01*
X244969047Y-73180952D01*
X244607142Y-72819047D02*
X244797619Y-72819047D01*
X244797619Y-73219047D01*
X244473809Y-72819047D02*
X244473809Y-73219047D01*
X244245238Y-72819047D02*
X244416666Y-73047619D01*
X244245238Y-73219047D02*
X244473809Y-72990476D01*
X243397619Y-72838095D02*
X243340476Y-72819047D01*
X243245238Y-72819047D01*
X243207142Y-72838095D01*
X243188095Y-72857142D01*
X243169047Y-72895238D01*
X243169047Y-72933333D01*
X243188095Y-72971428D01*
X243207142Y-72990476D01*
X243245238Y-73009523D01*
X243321428Y-73028571D01*
X243359523Y-73047619D01*
X243378571Y-73066666D01*
X243397619Y-73104761D01*
X243397619Y-73142857D01*
X243378571Y-73180952D01*
X243359523Y-73200000D01*
X243321428Y-73219047D01*
X243226190Y-73219047D01*
X243169047Y-73200000D01*
X243035714Y-73219047D02*
X242940476Y-72819047D01*
X242864285Y-73104761D01*
X242788095Y-72819047D01*
X242692857Y-73219047D01*
X242540476Y-72819047D02*
X242540476Y-73219047D01*
X242445238Y-73219047D01*
X242388095Y-73200000D01*
X242350000Y-73161904D01*
X242330952Y-73123809D01*
X242311904Y-73047619D01*
X242311904Y-72990476D01*
X242330952Y-72914285D01*
X242350000Y-72876190D01*
X242388095Y-72838095D01*
X242445238Y-72819047D01*
X242540476Y-72819047D01*
X242140476Y-72819047D02*
X242140476Y-73219047D01*
X241873809Y-73219047D02*
X241797619Y-73219047D01*
X241759523Y-73200000D01*
X241721428Y-73161904D01*
X241702380Y-73085714D01*
X241702380Y-72952380D01*
X241721428Y-72876190D01*
X241759523Y-72838095D01*
X241797619Y-72819047D01*
X241873809Y-72819047D01*
X241911904Y-72838095D01*
X241950000Y-72876190D01*
X241969047Y-72952380D01*
X241969047Y-73085714D01*
X241950000Y-73161904D01*
X241911904Y-73200000D01*
X241873809Y-73219047D01*
D11*
X234563809Y-76277619D02*
X235063809Y-76277619D01*
X235063809Y-76468095D01*
X235040000Y-76515714D01*
X235016190Y-76539523D01*
X234968571Y-76563333D01*
X234897142Y-76563333D01*
X234849523Y-76539523D01*
X234825714Y-76515714D01*
X234801904Y-76468095D01*
X234801904Y-76277619D01*
X235063809Y-76730000D02*
X234563809Y-76849047D01*
X234920952Y-76944285D01*
X234563809Y-77039523D01*
X235063809Y-77158571D01*
X234563809Y-77349047D02*
X235063809Y-77349047D01*
X234706666Y-77515714D01*
X235063809Y-77682380D01*
X234563809Y-77682380D01*
X235611428Y-76592857D02*
X235587619Y-76569047D01*
X235563809Y-76497619D01*
X235563809Y-76450000D01*
X235587619Y-76378571D01*
X235635238Y-76330952D01*
X235682857Y-76307142D01*
X235778095Y-76283333D01*
X235849523Y-76283333D01*
X235944761Y-76307142D01*
X235992380Y-76330952D01*
X236040000Y-76378571D01*
X236063809Y-76450000D01*
X236063809Y-76497619D01*
X236040000Y-76569047D01*
X236016190Y-76592857D01*
X236063809Y-76807142D02*
X235659047Y-76807142D01*
X235611428Y-76830952D01*
X235587619Y-76854761D01*
X235563809Y-76902380D01*
X235563809Y-76997619D01*
X235587619Y-77045238D01*
X235611428Y-77069047D01*
X235659047Y-77092857D01*
X236063809Y-77092857D01*
X235563809Y-77616666D02*
X235801904Y-77450000D01*
X235563809Y-77330952D02*
X236063809Y-77330952D01*
X236063809Y-77521428D01*
X236040000Y-77569047D01*
X236016190Y-77592857D01*
X235968571Y-77616666D01*
X235897142Y-77616666D01*
X235849523Y-77592857D01*
X235825714Y-77569047D01*
X235801904Y-77521428D01*
X235801904Y-77330952D01*
X235563809Y-78116666D02*
X235801904Y-77950000D01*
X235563809Y-77830952D02*
X236063809Y-77830952D01*
X236063809Y-78021428D01*
X236040000Y-78069047D01*
X236016190Y-78092857D01*
X235968571Y-78116666D01*
X235897142Y-78116666D01*
X235849523Y-78092857D01*
X235825714Y-78069047D01*
X235801904Y-78021428D01*
X235801904Y-77830952D01*
X237040000Y-76569047D02*
X237063809Y-76521428D01*
X237063809Y-76450000D01*
X237040000Y-76378571D01*
X236992380Y-76330952D01*
X236944761Y-76307142D01*
X236849523Y-76283333D01*
X236778095Y-76283333D01*
X236682857Y-76307142D01*
X236635238Y-76330952D01*
X236587619Y-76378571D01*
X236563809Y-76450000D01*
X236563809Y-76497619D01*
X236587619Y-76569047D01*
X236611428Y-76592857D01*
X236778095Y-76592857D01*
X236778095Y-76497619D01*
X236563809Y-76807142D02*
X237063809Y-76807142D01*
X236563809Y-77092857D01*
X237063809Y-77092857D01*
X236563809Y-77330952D02*
X237063809Y-77330952D01*
X237063809Y-77450000D01*
X237040000Y-77521428D01*
X236992380Y-77569047D01*
X236944761Y-77592857D01*
X236849523Y-77616666D01*
X236778095Y-77616666D01*
X236682857Y-77592857D01*
X236635238Y-77569047D01*
X236587619Y-77521428D01*
X236563809Y-77450000D01*
X236563809Y-77330952D01*
X238063809Y-76233333D02*
X237563809Y-76400000D01*
X238063809Y-76566666D01*
X237611428Y-77019047D02*
X237587619Y-76995238D01*
X237563809Y-76923809D01*
X237563809Y-76876190D01*
X237587619Y-76804761D01*
X237635238Y-76757142D01*
X237682857Y-76733333D01*
X237778095Y-76709523D01*
X237849523Y-76709523D01*
X237944761Y-76733333D01*
X237992380Y-76757142D01*
X238040000Y-76804761D01*
X238063809Y-76876190D01*
X238063809Y-76923809D01*
X238040000Y-76995238D01*
X238016190Y-77019047D01*
X237611428Y-77519047D02*
X237587619Y-77495238D01*
X237563809Y-77423809D01*
X237563809Y-77376190D01*
X237587619Y-77304761D01*
X237635238Y-77257142D01*
X237682857Y-77233333D01*
X237778095Y-77209523D01*
X237849523Y-77209523D01*
X237944761Y-77233333D01*
X237992380Y-77257142D01*
X238040000Y-77304761D01*
X238063809Y-77376190D01*
X238063809Y-77423809D01*
X238040000Y-77495238D01*
X238016190Y-77519047D01*
D12*
X252229822Y-70421700D02*
X251421700Y-71229822D01*
X252229822Y-88671700D02*
X251421700Y-89479822D01*
X252229822Y-89479822D02*
X251421700Y-88671700D01*
D13*
%TO.C,J3*%
X241220000Y-70000000D02*
X241220000Y-72660000D01*
X248900000Y-70000000D02*
X241220000Y-70000000D01*
X248900000Y-72660000D02*
X241220000Y-72660000D01*
X248900000Y-70000000D02*
X248900000Y-72660000D01*
X250170000Y-70000000D02*
X251500000Y-70000000D01*
X251500000Y-70000000D02*
X251500000Y-71330000D01*
D14*
%TO.C,Q6*%
X232600000Y-88700000D02*
G75*
G03*
X232600000Y-88700000I-100000J0D01*
G01*
D10*
X231000000Y-89350000D02*
X226000000Y-89350000D01*
X231000000Y-84250000D02*
X226000000Y-84250000D01*
D13*
%TO.C,J6*%
X243760000Y-73380000D02*
X243760000Y-76040000D01*
X251440000Y-73380000D02*
X243760000Y-73380000D01*
X251440000Y-76040000D02*
X243760000Y-76040000D01*
X251440000Y-73380000D02*
X251440000Y-76040000D01*
%TO.C,J2*%
X239380000Y-72595000D02*
X239380000Y-75095000D01*
X239380000Y-75095000D02*
X238330000Y-75095000D01*
X238330000Y-75095000D02*
X238330000Y-76085000D01*
X233160000Y-72595000D02*
X233160000Y-75095000D01*
X233160000Y-75095000D02*
X234210000Y-75095000D01*
X238210000Y-70625000D02*
X234330000Y-70625000D01*
%TO.C,C20*%
X236420000Y-80422064D02*
X236420000Y-79217936D01*
X238240000Y-80422064D02*
X238240000Y-79217936D01*
%TO.C,U4*%
X239010000Y-82720000D02*
X237210000Y-82720000D01*
X237210000Y-85940000D02*
X239660000Y-85940000D01*
%TO.C,R1*%
X257580000Y-78200000D02*
X253980000Y-78200000D01*
X257580000Y-81800000D02*
X253980000Y-81800000D01*
%TO.C,U3*%
X247290000Y-86860000D02*
X247290000Y-88170000D01*
X247290000Y-88170000D02*
X244570000Y-88170000D01*
X243430000Y-83680000D02*
X244570000Y-83680000D01*
X247290000Y-83450000D02*
X247290000Y-84760000D01*
X244570000Y-83450000D02*
X247290000Y-83450000D01*
X244570000Y-83450000D02*
X244570000Y-83680000D01*
X244570000Y-88170000D02*
X244570000Y-87940000D01*
%TO.C,C5*%
X241790000Y-84937221D02*
X241790000Y-85262779D01*
X242810000Y-84937221D02*
X242810000Y-85262779D01*
%TO.C,C4*%
X241712779Y-86850000D02*
X241387221Y-86850000D01*
X241712779Y-87870000D02*
X241387221Y-87870000D01*
%TO.C,C24*%
X238367221Y-86400000D02*
X238692779Y-86400000D01*
X238367221Y-87420000D02*
X238692779Y-87420000D01*
%TO.C,C22*%
X241300000Y-84937221D02*
X241300000Y-85262779D01*
X240280000Y-84937221D02*
X240280000Y-85262779D01*
%TO.C,C21*%
X247870000Y-80422064D02*
X247870000Y-79217936D01*
X249690000Y-80422064D02*
X249690000Y-79217936D01*
%TO.C,C19*%
X245580000Y-80422064D02*
X245580000Y-79217936D01*
X247400000Y-80422064D02*
X247400000Y-79217936D01*
%TO.C,C18*%
X238710000Y-80422064D02*
X238710000Y-79217936D01*
X240530000Y-80422064D02*
X240530000Y-79217936D01*
%TO.C,C17*%
X243290000Y-80422064D02*
X243290000Y-79217936D01*
X245110000Y-80422064D02*
X245110000Y-79217936D01*
%TO.C,C16*%
X241000000Y-80422064D02*
X241000000Y-79217936D01*
X242820000Y-80422064D02*
X242820000Y-79217936D01*
D14*
%TO.C,Q4*%
X232600000Y-81900000D02*
G75*
G03*
X232600000Y-81900000I-100000J0D01*
G01*
D10*
X231000000Y-82550000D02*
X226000000Y-82550000D01*
X231000000Y-77450000D02*
X226000000Y-77450000D01*
D14*
%TO.C,Q2*%
X232640000Y-75100000D02*
G75*
G03*
X232640000Y-75100000I-100000J0D01*
G01*
D10*
X231040000Y-75750000D02*
X226040000Y-75750000D01*
X231040000Y-70650000D02*
X226040000Y-70650000D01*
%TD*%
M02*
